<?xml version="1.0" encoding="UTF-8"?>
<svg width="157px" height="76px" viewBox="0 0 157 76" version="1.1" xmlns="http://www.w3.org/2000/svg" xmlns:xlink="http://www.w3.org/1999/xlink">
    <!-- Generator: Sketch 53.2 (72643) - https://sketchapp.com -->
    <title>logo</title>
    <desc>Created with Sketch.</desc>
    <g id="Page-1" stroke="none" stroke-width="1" fill="none" fill-rule="evenodd">
        <g id="Artboard" transform="translate(-121.000000, 0.000000)" fill-rule="nonzero">
            <g id="logo" transform="translate(121.000000, 0.000000)">
                <rect id="Rectangle-path" fill="#154273" x="0" y="0" width="44.9399986" height="75.9499969"></rect>
                <path d="M23.1711742,55.5883896 L22.4715959,55.5883896 L22.4715959,53.3637258 L23.2877706,53.3637258 L23.2877706,55.5883896 L23.1711742,55.5883896 Z M26.6690657,46.1042965 L25.852891,46.1042965 L25.852891,43.9967202 L26.6690657,43.9967202 L26.6690657,46.1042965 Z M12.3277106,42.3574943 C12.2111142,42.3574943 11.8613251,42.3574943 11.8613251,42.4745818 C11.8613251,42.5916694 12.0945179,42.4745818 12.3277106,42.5916694 C12.9106925,42.708757 13.1438853,43.0600197 13.6102708,43.0600197 C13.96006,43.0600197 14.4264455,42.8258445 14.1932527,42.2404067 C14.1932527,42.1233191 14.0766564,42.1233191 14.0766564,42.2404067 C13.96006,42.4745818 13.7268672,42.5916694 13.3770781,42.5916694 C13.1438853,42.4745818 13.0272889,42.3574943 12.3277106,42.3574943 Z M8.13024084,44.4650705 C8.24683723,44.5821581 8.94641552,45.5188586 7.78045169,45.8701213 C7.78045169,45.8701213 7.66385531,45.9872089 7.78045169,45.9872089 C8.59662637,46.3384716 9.0630119,45.7530338 9.0630119,45.7530338 C9.52939744,46.6897343 8.82981914,47.2751722 8.82981914,47.2751722 C8.94641552,47.3922597 9.29620467,47.7435225 9.87918658,47.86061 C10.1123793,47.7435225 10.4621685,47.5093473 10.5787649,47.1580846 C10.5787649,47.1580846 10.6953613,47.6264349 10.5787649,47.9776976 C12.2111142,48.0947852 12.9106925,46.8068219 14.1932527,47.040997 C14.1932527,46.221384 13.7268672,44.6992456 12.0945179,44.3479829 C10.4621685,43.9967202 10.928554,43.4112824 10.928554,43.4112824 C11.6281323,43.4112824 11.9779215,43.6454575 11.9779215,43.6454575 C12.0945179,43.4112824 11.9779215,43.1771072 11.9779215,43.1771072 C12.0945179,43.0600197 12.0945179,42.8258445 12.0945179,42.8258445 C11.2783432,42.8258445 11.1617468,42.708757 11.1617468,42.708757 C11.0451504,42.2404067 11.3949396,41.6549688 12.444307,42.3574943 C12.6774998,42.1233191 12.6774998,41.7720564 12.6774998,41.7720564 C12.7940962,41.7720564 12.7940962,41.6549688 12.7940962,41.5378813 C12.7940962,41.3037061 11.8613251,40.8353558 11.6281323,40.8353558 C11.6281323,40.6011807 11.2783432,40.1328304 10.1123793,40.249918 C9.64599382,40.3670056 9.29620467,40.1328304 9.41280105,39.8986553 C9.41280105,39.8986553 9.29620467,39.7815677 9.29620467,39.8986553 C9.17960829,40.0157429 9.0630119,40.3670056 9.41280105,40.6011807 C9.87918658,40.8353558 9.87918658,41.3037061 9.87918658,41.4207937 C9.87918658,41.5378813 9.7625902,41.5378813 9.7625902,41.4207937 C9.52939744,40.6011807 8.36343361,40.3670056 7.78045169,40.8353558 C7.78045169,41.3037061 8.24683723,41.5378813 8.59662637,41.5378813 C8.71322276,41.5378813 8.94641552,41.4207937 8.94641552,41.1866186 C8.94641552,41.069531 8.94641552,41.069531 9.0630119,41.1866186 C9.17960829,41.5378813 8.71322276,42.1233191 8.13024084,41.7720564 C7.43066255,42.4745818 7.78045169,43.2941948 7.78045169,43.5283699 C7.89704808,44.1138078 7.66385531,44.5821581 7.19746978,44.3479829 C7.19746978,44.4650705 7.54725893,44.8163332 8.13024084,44.4650705 Z M11.7447287,41.1866186 C11.3949396,41.5378813 10.928554,41.4207937 10.8119576,40.8353558 C11.3949396,40.8353558 11.7447287,40.9524434 11.7447287,41.1866186 Z M31.332921,42.4745818 C30.9831319,42.4745818 30.6333427,42.3574943 30.6333427,42.1233191 C30.6333427,42.0062315 30.5167463,42.0062315 30.5167463,42.1233191 C30.40015,42.708757 30.7499391,42.9429321 31.0997283,42.9429321 C31.5661138,42.9429321 31.7993065,42.5916694 32.3822885,42.4745818 C32.6154812,42.4745818 32.848674,42.4745818 32.848674,42.3574943 C32.848674,42.2404067 32.4988848,42.2404067 32.3822885,42.2404067 C31.7993065,42.3574943 31.6827102,42.4745818 31.332921,42.4745818 Z M37.6291257,44.1138078 C37.6291257,43.9967202 37.6291257,43.9967202 37.6291257,44.1138078 C37.0461438,44.3479829 36.812951,43.7625451 36.9295474,43.2941948 C37.0461438,42.9429321 37.2793365,42.1233191 36.5797582,41.5378813 C35.8801799,41.889144 35.5303908,41.3037061 35.6469872,40.9524434 C35.6469872,40.8353558 35.7635836,40.8353558 35.7635836,40.9524434 C35.7635836,41.1866186 35.9967763,41.3037061 36.1133727,41.3037061 C36.3465655,41.3037061 36.812951,40.9524434 36.9295474,40.6011807 C36.2299691,40.1328304 35.1806016,40.3670056 34.9474089,41.1866186 C34.9474089,41.3037061 34.8308125,41.3037061 34.8308125,41.1866186 C34.8308125,41.069531 34.8308125,40.6011807 35.297198,40.3670056 C35.7635836,40.1328304 35.5303908,39.7815677 35.4137944,39.6644801 L35.297198,39.6644801 C35.4137944,40.0157429 35.0640053,40.1328304 34.5976197,40.0157429 C33.5482523,39.8986553 33.1984631,40.249918 33.0818668,40.6011807 C32.848674,40.7182683 31.9159029,41.1866186 31.9159029,41.3037061 C31.9159029,41.3037061 31.9159029,41.5378813 32.0324993,41.5378813 C32.0324993,41.5378813 32.0324993,41.889144 32.2656921,42.1233191 C33.4316559,41.4207937 33.6648487,42.1233191 33.5482523,42.4745818 C33.5482523,42.4745818 33.3150595,42.5916694 32.6154812,42.5916694 C32.6154812,42.5916694 32.6154812,42.8258445 32.7320776,42.9429321 C32.7320776,42.9429321 32.6154812,43.1771072 32.7320776,43.4112824 C32.7320776,43.4112824 33.0818668,43.0600197 33.7814451,43.1771072 C33.7814451,43.1771072 34.2478306,43.8796327 32.6154812,44.1138078 C30.9831319,44.4650705 30.5167463,45.9872089 30.5167463,46.8068219 C30.5167463,46.8068219 30.5167463,46.9239095 30.5167463,46.8068219 C31.7993065,46.5726468 32.3822885,47.86061 34.1312342,47.7435225 C34.0146378,47.3922597 34.1312342,46.9239095 34.1312342,46.9239095 C34.2478306,47.2751722 34.5976197,47.5093473 34.8308125,47.6264349 C35.4137944,47.5093473 35.8801799,47.1580846 35.8801799,47.040997 C35.8801799,47.040997 35.297198,46.4555592 35.6469872,45.5188586 C35.6469872,45.5188586 35.9967763,46.1042965 36.9295474,45.7530338 C37.0461438,45.7530338 36.9295474,45.6359462 36.9295474,45.6359462 C35.7635836,45.2846835 36.5797582,44.3479829 36.5797582,44.2308954 C37.2793365,44.8163332 37.6291257,44.4650705 37.6291257,44.1138078 Z M34.0146378,40.8353558 C33.8980414,41.4207937 33.4316559,41.5378813 33.0818668,41.1866186 C33.0818668,40.9524434 33.4316559,40.8353558 34.0146378,40.8353558 Z M22.1218068,31.3512627 C22.1218068,31.4683503 22.2384032,31.5854378 22.2384032,31.7025254 C22.3549995,31.819613 22.3549995,31.9367006 22.2384032,31.9367006 C22.2384032,31.9367006 22.1218068,32.0537881 22.0052104,31.9367006 C21.888614,31.9367006 21.7720176,31.819613 21.6554212,31.819613 C21.4222285,31.819613 21.3056321,31.9367006 21.3056321,32.1708757 C21.3056321,32.4050508 21.4222285,32.5221384 21.6554212,32.5221384 C21.7720176,32.5221384 21.888614,32.4050508 22.0052104,32.4050508 C22.1218068,32.2879633 22.2384032,32.2879633 22.2384032,32.4050508 C22.2384032,32.4050508 22.2384032,32.9904887 22.1218068,33.3417514 C21.7720176,33.458839 21.5388249,33.6930141 21.5388249,33.9271892 C21.5388249,34.3955395 22.0052104,34.7468022 22.3549995,34.8638898 C22.7047887,34.7468022 23.1711742,34.3955395 23.1711742,33.9271892 C23.1711742,33.6930141 22.9379815,33.458839 22.5881923,33.3417514 C22.5881923,32.9904887 22.4715959,32.5221384 22.4715959,32.4050508 C22.4715959,32.4050508 22.5881923,32.2879633 22.7047887,32.4050508 C22.8213851,32.4050508 22.9379815,32.5221384 23.0545778,32.5221384 C23.2877706,32.5221384 23.404367,32.4050508 23.404367,32.1708757 C23.404367,31.9367006 23.2877706,31.819613 23.0545778,31.819613 C22.9379815,31.819613 22.8213851,31.9367006 22.7047887,31.9367006 C22.5881923,32.0537881 22.4715959,32.0537881 22.4715959,31.9367006 C22.4715959,31.9367006 22.3549995,31.819613 22.4715959,31.7025254 C22.4715959,31.5854378 22.5881923,31.4683503 22.5881923,31.3512627 C22.5881923,31.1170876 22.4715959,31 22.2384032,31 C22.2384032,31 22.1218068,31.1170876 22.1218068,31.3512627 Z M22.4715959,34.9809774 C22.1218068,34.9809774 21.888614,35.2151525 21.888614,35.5664152 C21.888614,35.9176779 22.1218068,36.1518531 22.4715959,36.1518531 C22.8213851,36.1518531 23.0545778,35.9176779 23.0545778,35.5664152 C23.0545778,35.2151525 22.7047887,34.9809774 22.4715959,34.9809774 Z M22.4715959,40.7182683 C24.8035236,40.7182683 26.2026802,41.1866186 26.2026802,41.1866186 C26.2026802,40.0157429 26.2026802,39.3132174 26.9022585,39.430305 C26.5524693,38.3765169 28.1848187,38.0252542 28.1848187,36.7372909 C28.1848187,35.9176779 27.6018368,35.8005904 27.368644,35.8005904 C26.7856621,35.8005904 26.9022585,36.1518531 26.4358729,36.1518531 L26.3192766,36.1518531 C26.3192766,36.2689406 26.4358729,36.6202033 26.6690657,36.6202033 C26.9022585,36.6202033 26.9022585,36.3860282 27.1354512,36.3860282 C27.2520476,36.3860282 27.368644,36.5031158 27.368644,36.7372909 C27.368644,37.3227288 27.0188549,37.9081666 26.5524693,38.3765169 C26.4358729,38.2594293 26.3192766,38.1423417 26.2026802,38.1423417 C25.9694874,38.1423417 25.7362946,38.3765169 25.7362946,38.7277796 C25.7362946,38.8448672 25.7362946,38.9619547 25.852891,39.0790423 C25.7362946,39.1961299 25.6196983,39.1961299 25.5031019,39.1961299 C25.2699091,39.1961299 25.0367163,39.0790423 25.0367163,38.7277796 C25.0367163,37.791079 26.3192766,36.971466 26.3192766,35.6835028 C26.3192766,35.0980649 25.9694874,34.5126271 25.1533127,34.5126271 C24.337138,34.5126271 24.4537344,35.3322401 23.7541561,35.3322401 L23.6375598,35.3322401 C23.6375598,35.3322401 23.7541561,35.8005904 24.1039453,35.8005904 C24.5703308,35.8005904 24.6869272,35.0980649 25.0367163,35.0980649 C25.1533127,35.0980649 25.3865055,35.2151525 25.3865055,35.6835028 C25.3865055,36.0347655 25.1533127,36.6202033 24.92012,37.2056412 C24.5703308,36.971466 24.4537344,36.971466 24.337138,36.971466 C23.9873489,36.971466 23.7541561,37.3227288 23.7541561,37.6739915 C23.7541561,37.9081666 23.8707525,38.1423417 23.9873489,38.2594293 C23.7541561,38.4936045 23.6375598,38.7277796 23.404367,38.7277796 C22.9379815,38.7277796 22.7047887,38.3765169 22.7047887,38.1423417 C22.7047887,37.791079 23.2877706,37.6739915 23.2877706,37.0885536 C23.2877706,36.7372909 23.0545778,36.5031158 22.8213851,36.5031158 C22.5881923,36.5031158 22.4715959,36.6202033 22.4715959,36.6202033 C22.4715959,36.6202033 22.3549995,36.5031158 22.1218068,36.5031158 C21.888614,36.5031158 21.6554212,36.7372909 21.6554212,37.0885536 C21.6554212,37.6739915 22.2384032,37.791079 22.2384032,38.1423417 C22.2384032,38.4936045 22.0052104,38.7277796 21.5388249,38.7277796 C21.3056321,38.7277796 21.0724393,38.4936045 20.9558429,38.2594293 C21.0724393,38.1423417 21.1890357,37.9081666 21.1890357,37.6739915 C21.1890357,37.3227288 20.9558429,36.971466 20.6060538,36.971466 C20.4894574,36.971466 20.372861,37.0885536 20.2562647,37.0885536 C20.0230719,36.5031158 19.7898791,35.9176779 19.7898791,35.5664152 C19.7898791,35.0980649 20.0230719,34.9809774 20.1396683,34.9809774 C20.4894574,34.9809774 20.6060538,35.6835028 21.0724393,35.6835028 C21.4222285,35.6835028 21.5388249,35.2151525 21.5388249,35.2151525 C21.5388249,35.2151525 21.5388249,35.2151525 21.4222285,35.2151525 C20.7226502,35.2151525 20.8392466,34.3955395 20.0230719,34.3955395 C19.2068972,34.3955395 18.8571081,34.9809774 18.8571081,35.5664152 C18.8571081,36.7372909 20.1396683,37.5569039 20.1396683,38.610692 C20.1396683,39.0790423 19.7898791,39.0790423 19.6732827,39.0790423 C19.5566864,39.0790423 19.44009,39.0790423 19.3234936,38.9619547 C19.3234936,38.8448672 19.44009,38.7277796 19.44009,38.610692 C19.44009,38.2594293 19.2068972,38.0252542 18.9737044,38.0252542 C18.8571081,38.0252542 18.6239153,38.1423417 18.6239153,38.2594293 C18.1575298,37.791079 17.8077406,37.2056412 17.8077406,36.6202033 C17.8077406,36.3860282 17.924337,36.2689406 18.0409334,36.2689406 C18.2741261,36.2689406 18.2741261,36.5031158 18.5073189,36.5031158 C18.7405117,36.5031158 18.8571081,36.2689406 18.8571081,36.0347655 C18.8571081,36.0347655 18.8571081,36.0347655 18.7405117,36.0347655 C18.2741261,36.0347655 18.3907225,35.6835028 17.8077406,35.6835028 C17.5745478,35.6835028 16.9915659,35.8005904 16.9915659,36.6202033 C16.9915659,37.9081666 18.6239153,38.3765169 18.2741261,39.3132174 C18.9737044,39.1961299 18.9737044,39.8986553 18.9737044,41.069531 C18.7405117,41.1866186 20.0230719,40.7182683 22.4715959,40.7182683 Z M18.0409334,42.4745818 C17.3413551,42.5916694 16.9915659,42.708757 16.7583732,42.8258445 C16.7583732,42.5916694 16.8749696,42.2404067 17.1081623,42.2404067 C17.1081623,42.2404067 17.1081623,42.2404067 17.1081623,42.1233191 C16.5251804,41.7720564 16.1753913,42.4745818 16.1753913,42.4745818 C15.9421985,42.4745818 15.7090057,42.4745818 15.7090057,42.8258445 C15.7090057,43.6454575 13.8434636,44.1138078 13.3770781,44.2308954 C14.1932527,44.5821581 14.4264455,45.5188586 14.4264455,45.5188586 C15.0094274,44.9334208 15.5924093,44.4650705 15.8256021,44.4650705 C15.9421985,44.4650705 16.0587949,44.6992456 16.0587949,44.8163332 C16.0587949,44.8163332 16.0587949,44.8163332 16.1753913,44.8163332 C16.5251804,44.3479829 16.2919876,44.2308954 16.2919876,44.1138078 C16.2919876,43.9967202 16.2919876,43.6454575 16.7583732,43.6454575 L16.7583732,49.1485733 L16.5251804,49.1485733 C16.408584,49.1485733 15.5924093,48.4460479 14.6596383,47.86061 C13.7268672,47.2751722 13.2604817,47.6264349 12.2111142,48.2118727 C10.8119576,48.9143981 9.41280105,48.3289603 9.41280105,48.3289603 C8.24683723,49.1485733 7.78045169,51.6074122 7.78045169,51.6074122 C7.54725893,51.7244998 7.19746978,51.8415874 6.73108425,51.8415874 C5.79831319,51.8415874 5.6817168,51.2561495 5.6817168,51.0219744 C5.6817168,49.6169236 7.43066255,49.0314857 7.43066255,47.6264349 C7.43066255,47.2751722 7.31406616,45.9872089 5.56512042,45.9872089 C5.33192766,45.9872089 4.04936745,45.9872089 4.04936745,45.9872089 C3.46638553,45.9872089 3.23319277,45.5188586 3.23319277,45.4017711 C3.23319277,45.2846835 3.11659638,45.4017711 3.11659638,45.4017711 C3.11659638,45.5188586 3,45.6359462 3,45.9872089 C3,46.5726468 3.34978915,46.9239095 3.93277106,46.9239095 C4.16596383,46.9239095 4.51575298,46.8068219 4.51575298,46.8068219 L4.63234936,46.8068219 C4.39915659,47.1580846 4.39915659,47.7435225 4.39915659,47.86061 L4.51575298,47.86061 C4.63234936,47.2751722 5.21533127,46.6897343 5.91490957,46.6897343 C6.84768063,46.6897343 6.84768063,47.5093473 6.84768063,47.6264349 C6.84768063,48.7973106 4.86554212,49.6169236 4.86554212,51.139062 C4.86554212,52.6612004 6.49789148,53.0124631 7.43066255,52.7782879 C7.43066255,54.3004263 5.56512042,54.8858642 5.56512042,53.7149885 C5.56512042,53.7149885 5.56512042,53.5979009 5.44852404,53.7149885 C5.21533127,54.3004263 5.33192766,54.7687766 6.03150595,54.8858642 C6.03150595,54.8858642 6.03150595,54.8858642 6.03150595,55.0029518 C5.33192766,55.471302 5.6817168,57.2276156 5.79831319,57.6959659 C5.79831319,58.3984913 5.09873489,58.3984913 5.09873489,58.2814037 C5.09873489,58.2814037 4.98213851,58.2814037 5.09873489,58.3984913 C5.56512042,58.9839291 6.26469872,58.3984913 6.26469872,58.3984913 C6.73108425,58.5155789 6.49789148,58.9839291 6.14810234,59.2181043 L6.14810234,59.3351918 C6.26469872,59.3351918 6.96427701,59.4522794 7.0808734,58.749754 C7.43066255,59.1010167 7.89704808,58.9839291 8.01364446,58.9839291 C8.13024084,58.8668416 8.82981914,58.6326664 8.94641552,59.4522794 C8.94641552,59.4522794 8.94641552,59.4522794 9.0630119,59.4522794 C9.64599382,58.749754 9.0630119,58.3984913 8.71322276,58.2814037 C8.71322276,58.2814037 9.17960829,57.930141 9.52939744,58.3984913 C9.52939744,57.5788783 8.94641552,57.4617907 8.48002999,57.8130534 C8.48002999,57.6959659 8.36343361,57.2276156 8.94641552,57.2276156 C8.48002999,56.6421777 8.01364446,57.2276156 7.89704808,57.3447032 C7.66385531,57.5788783 7.0808734,57.4617907 7.0808734,57.4617907 C7.31406616,54.5346015 9.87918658,55.5883896 10.2289757,54.1833388 C10.2289757,54.0662512 10.2289757,54.1833388 10.2289757,54.1833388 C10.3455721,54.5346015 11.1617468,54.5346015 11.3949396,53.9491636 C11.3949396,53.9491636 11.3949396,53.8320761 11.3949396,53.9491636 C10.6953613,54.6516891 8.94641552,52.3099377 11.2783432,50.4365366 C13.2604817,48.7973106 15.0094274,49.7340111 15.5924093,50.2023614 C15.5924093,50.4365366 15.475813,50.5536241 15.3592166,50.5536241 C15.3592166,50.5536241 15.3592166,50.5536241 15.3592166,50.6707117 C15.5924093,50.7877993 15.8256021,50.6707117 15.9421985,50.5536241 C16.408584,50.9048868 16.0587949,51.2561495 15.8256021,51.3732371 C15.8256021,51.3732371 15.8256021,51.3732371 15.8256021,51.4903247 C16.1753913,51.6074122 16.5251804,51.139062 16.5251804,50.9048868 L16.6417768,50.9048868 L16.6417768,52.1928501 C16.6417768,54.5346015 19.3234936,54.8858642 22.3549995,56.8763529 C25.3865055,54.8858642 28.0682223,54.5346015 28.0682223,52.1928501 L28.0682223,50.5536241 L28.1848187,50.5536241 C28.1848187,50.7877993 28.5346078,51.139062 28.884397,51.139062 C28.884397,51.139062 28.884397,51.139062 28.884397,51.0219744 C28.7678006,50.9048868 28.3014151,50.5536241 28.7678006,50.2023614 C28.884397,50.319449 29.1175897,50.4365366 29.3507825,50.319449 C29.3507825,50.319449 29.3507825,50.319449 29.3507825,50.2023614 C29.2341861,50.2023614 29.1175897,50.0852738 29.1175897,49.8510987 C29.817168,49.2656609 31.5661138,48.4460479 33.4316559,50.0852738 C35.7635836,51.958675 34.0146378,54.3004263 33.3150595,53.5979009 C33.4316559,54.3004263 34.364427,54.1833388 34.4810234,53.8320761 C34.8308125,55.2371269 37.3959329,54.1833388 37.6291257,57.110528 C37.6291257,57.110528 37.0461438,57.2276156 36.812951,56.9934404 C36.6963546,56.8763529 36.2299691,56.4080026 35.7635836,56.8763529 C36.4631619,56.8763529 36.2299691,57.3447032 36.2299691,57.4617907 C35.7635836,57.110528 35.0640053,57.2276156 35.1806016,58.0472286 C35.1806016,58.1643161 35.1806016,58.1643161 35.1806016,58.0472286 C35.5303908,57.5788783 35.9967763,57.930141 35.9967763,57.930141 C35.6469872,57.930141 35.0640053,58.3984913 35.6469872,59.1010167 C35.6469872,59.1010167 35.6469872,59.2181043 35.7635836,59.1010167 C35.8801799,58.2814037 36.5797582,58.5155789 36.6963546,58.6326664 C36.812951,58.6326664 37.2793365,58.8668416 37.6291257,58.3984913 C37.7457221,58.9839291 38.5618967,58.9839291 38.5618967,58.9839291 C38.5618967,58.9839291 38.5618967,58.9839291 38.5618967,58.8668416 C38.2121076,58.6326664 37.9789148,58.2814037 38.4453004,58.0472286 C38.4453004,58.0472286 39.0282823,58.6326664 39.6112642,58.0472286 L39.6112642,57.930141 C39.4946678,57.930141 38.7950895,58.0472286 38.9116859,57.3447032 C38.9116859,56.8763529 39.261475,55.1200393 38.6784931,54.6516891 C38.6784931,54.6516891 38.5618967,54.6516891 38.6784931,54.5346015 C39.3780714,54.4175139 39.4946678,53.9491636 39.261475,53.3637258 C39.261475,53.2466382 39.1448787,53.3637258 39.1448787,53.3637258 C39.1448787,54.5346015 37.2793365,53.9491636 37.2793365,52.4270252 C38.2121076,52.6612004 39.844457,52.3099377 39.844457,50.7877993 C39.844457,49.2656609 37.8623185,48.4460479 37.8623185,47.2751722 C37.8623185,47.040997 37.8623185,46.3384716 38.7950895,46.3384716 C39.4946678,46.3384716 40.0776497,46.9239095 40.1942461,47.5093473 C40.1942461,47.5093473 40.1942461,47.5093473 40.3108425,47.5093473 C40.4274389,47.3922597 40.4274389,46.8068219 40.0776497,46.4555592 C40.0776497,46.4555592 40.0776497,46.3384716 40.1942461,46.4555592 C40.3108425,46.4555592 40.5440353,46.5726468 40.777228,46.5726468 C41.3602099,46.5726468 41.7099991,46.221384 41.7099991,45.6359462 C41.7099991,45.2846835 41.5934027,45.1675959 41.5934027,45.0505084 C41.5934027,45.0505084 41.5934027,44.9334208 41.4768063,45.0505084 C41.3602099,45.1675959 41.2436136,45.6359462 40.6606316,45.6359462 C40.6606316,45.6359462 39.3780714,45.6359462 39.1448787,45.6359462 C37.5125293,45.6359462 37.2793365,47.040997 37.2793365,47.2751722 C37.2793365,48.680223 39.0282823,49.2656609 39.0282823,50.6707117 C39.0282823,51.0219744 38.9116859,51.4903247 37.9789148,51.4903247 C37.6291257,51.4903247 37.1627402,51.3732371 36.9295474,51.2561495 C36.9295474,51.2561495 36.5797582,48.7973106 35.297198,47.9776976 C35.297198,47.9776976 33.8980414,48.680223 32.4988848,47.86061 C31.4495174,47.2751722 30.9831319,46.9239095 30.0503608,47.5093473 C29.1175897,48.0947852 28.3014151,48.7973106 28.1848187,48.7973106 L27.9516259,48.7973106 L27.9516259,43.2941948 C28.4180114,43.2941948 28.4180114,43.6454575 28.4180114,43.7625451 C28.4180114,43.8796327 28.3014151,43.9967202 28.5346078,44.4650705 C28.5346078,44.4650705 28.5346078,44.4650705 28.6512042,44.4650705 C28.6512042,44.3479829 28.7678006,44.1138078 28.884397,44.1138078 C29.0009934,44.1138078 29.7005717,44.5821581 30.2835536,45.1675959 C30.2835536,45.1675959 30.6333427,44.2308954 31.332921,43.8796327 C30.8665355,43.7625451 29.0009934,43.4112824 29.0009934,42.4745818 C29.0009934,42.2404067 28.6512042,42.1233191 28.5346078,42.1233191 C28.5346078,42.1233191 28.1848187,41.4207937 27.6018368,41.7720564 L27.6018368,41.889144 C27.8350295,42.0062315 27.9516259,42.2404067 27.9516259,42.4745818 C27.368644,42.3574943 25.0367163,41.6549688 22.3549995,41.6549688 C20.9558429,41.6549688 19.7898791,41.7720564 18.7405117,42.0062315 L18.7405117,43.8796327 L17.924337,43.8796327 L17.924337,42.4745818 L18.0409334,42.4745818 Z M12.9106925,62.0282059 C12.6774998,61.9111184 12.5609034,61.7940308 12.5609034,61.5598557 L12.5609034,60.38898 C12.2111142,60.2718924 11.2783432,59.9206297 9.41280105,59.9206297 C7.89704808,59.9206297 7.43066255,60.2718924 7.43066255,60.38898 L7.0808734,62.6136438 C7.0808734,62.6136438 7.66385531,62.0282059 9.87918658,62.1452935 C12.5609034,62.2623811 15.3592166,63.9016071 15.3592166,62.2623811 L15.3592166,61.208593 C13.2604817,61.3256805 12.9106925,61.9111184 12.9106925,62.0282059 Z M29.4673789,61.3256805 L29.4673789,62.3794687 C29.4673789,64.0186946 32.2656921,62.4965562 34.9474089,62.2623811 C37.1627402,62.1452935 37.7457221,62.7307314 37.7457221,62.7307314 L37.3959329,60.38898 C37.3959329,60.2718924 36.9295474,59.9206297 35.4137944,59.9206297 C33.5482523,59.9206297 32.6154812,60.2718924 32.2656921,60.38898 L32.2656921,61.5598557 C32.2656921,61.7940308 32.1490957,61.9111184 31.9159029,62.0282059 C31.9159029,61.9111184 31.5661138,61.3256805 29.4673789,61.3256805 Z M22.4715959,60.2718924 C26.7856621,60.2718924 31.2163246,60.5060675 31.7993065,61.208593 L31.9159029,61.208593 L31.9159029,58.8668416 C31.9159029,58.1643161 27.368644,57.8130534 22.5881923,57.8130534 C17.8077406,57.8130534 13.2604817,58.1643161 13.2604817,58.8668416 L13.2604817,61.208593 C13.2604817,61.208593 13.2604817,61.3256805 13.3770781,61.208593 C13.7268672,60.5060675 18.0409334,60.2718924 22.4715959,60.2718924 Z M18.5073189,49.3827484 L18.0409334,49.2656609 L17.5745478,49.0314857 C17.5745478,49.0314857 17.924337,49.0314857 18.0409334,49.0314857 C17.8077406,48.9143981 17.6911442,48.680223 17.6911442,48.680223 C17.6911442,48.680223 17.924337,48.7973106 18.1575298,48.9143981 C18.0409334,48.680223 17.8077406,48.4460479 17.8077406,48.4460479 C17.8077406,48.4460479 18.1575298,48.680223 18.2741261,48.7973106 C18.1575298,48.5631354 18.0409334,48.2118727 18.0409334,48.2118727 L18.5073189,48.680223 C18.5073189,48.4460479 18.3907225,48.0947852 18.3907225,48.0947852 L18.7405117,48.5631354 C18.7405117,48.4460479 18.7405117,47.9776976 18.7405117,47.9776976 C18.7405117,47.9776976 18.8571081,48.3289603 18.9737044,48.4460479 L19.0903008,48.0947852 L19.0903008,48.680223 L18.9737044,48.680223 L18.8571081,49.3827484 C19.5566864,49.2656609 20.372861,48.0947852 20.9558429,48.0947852 C21.6554212,48.0947852 22.0052104,48.9143981 23.2877706,48.5631354 C23.6375598,49.0314857 23.7541561,49.499836 23.8707525,50.0852738 C24.4537344,50.5536241 25.1533127,50.4365366 25.1533127,49.8510987 C25.1533127,49.1485733 24.337138,49.0314857 24.337138,48.2118727 C24.337138,47.86061 24.5703308,47.3922597 25.1533127,47.3922597 C25.5031019,47.3922597 25.9694874,47.5093473 26.2026802,47.5093473 C26.5524693,47.5093473 26.5524693,47.2751722 26.6690657,47.1580846 C26.6690657,47.040997 26.7856621,47.1580846 26.7856621,47.1580846 C26.7856621,47.2751722 26.7856621,47.2751722 26.7856621,47.5093473 C26.7856621,47.9776976 26.0860838,48.0947852 25.9694874,47.9776976 C25.9694874,47.9776976 25.852891,47.9776976 25.9694874,47.9776976 C26.0860838,48.0947852 26.0860838,48.3289603 25.9694874,48.5631354 C25.852891,48.2118727 25.5031019,47.86061 25.1533127,47.86061 C25.0367163,47.86061 24.8035236,47.9776976 24.8035236,48.2118727 C24.8035236,48.680223 25.6196983,49.0314857 25.6196983,49.8510987 C25.6196983,50.7877993 24.6869272,51.0219744 23.8707525,50.7877993 C23.8707525,51.6074122 25.1533127,52.1928501 25.2699091,51.4903247 C25.5031019,51.7244998 25.3865055,51.958675 25.1533127,52.0757625 C25.3865055,52.1928501 25.3865055,52.6612004 25.5031019,52.8953755 C25.6196983,53.2466382 26.0860838,53.1295507 26.0860838,53.0124631 C25.9694874,53.4808134 25.5031019,53.2466382 25.5031019,53.2466382 C25.2699091,53.3637258 25.5031019,53.5979009 25.7362946,53.5979009 C25.6196983,53.5979009 25.2699091,53.7149885 25.1533127,53.4808134 C25.0367163,53.7149885 24.8035236,53.7149885 24.6869272,53.7149885 C24.5703308,53.7149885 24.4537344,53.8320761 24.4537344,54.0662512 C24.1039453,53.8320761 24.337138,53.4808134 24.4537344,53.3637258 C24.4537344,53.3637258 24.1039453,53.2466382 23.9873489,53.5979009 C24.1039453,53.3637258 24.4537344,53.2466382 24.8035236,53.3637258 C24.8035236,53.2466382 24.6869272,53.1295507 24.337138,53.1295507 C24.337138,53.0124631 24.5703308,52.7782879 24.92012,53.0124631 C25.0367163,53.1295507 25.3865055,53.0124631 25.3865055,52.8953755 C24.8035236,51.7244998 23.7541561,52.6612004 23.404367,51.8415874 C23.2877706,52.0757625 22.8213851,52.0757625 22.8213851,51.7244998 C22.9379815,51.8415874 23.0545778,51.8415874 23.2877706,51.6074122 C23.404367,51.3732371 23.404367,51.139062 23.404367,51.0219744 C23.404367,50.319449 22.7047887,49.1485733 21.6554212,49.1485733 C20.9558429,49.1485733 20.2562647,49.3827484 19.6732827,49.8510987 L20.1396683,49.9681863 C20.1396683,50.4365366 19.5566864,50.7877993 19.0903008,50.6707117 L19.2068972,50.0852738 C19.0903008,50.0852738 18.9737044,50.2023614 18.8571081,50.319449 C18.7405117,49.9681863 19.0903008,49.8510987 19.0903008,49.7340111 C18.8571081,49.7340111 18.7405117,49.8510987 18.6239153,49.9681863 C18.5073189,49.7340111 18.5073189,49.499836 18.5073189,49.3827484 Z M20.0230719,53.3637258 C19.7898791,53.5979009 19.6732827,53.3637258 19.44009,53.3637258 C19.2068972,53.3637258 19.2068972,53.5979009 19.2068972,53.5979009 C18.9737044,53.2466382 19.2068972,53.0124631 19.44009,53.0124631 C19.44009,53.0124631 19.0903008,52.7782879 18.9737044,53.0124631 C18.9737044,52.5441128 19.3234936,52.5441128 19.5566864,52.6612004 C19.5566864,52.5441128 19.44009,52.3099377 19.3234936,52.3099377 C19.44009,52.1928501 19.44009,52.1928501 19.5566864,52.1928501 C19.7898791,52.1928501 19.7898791,52.5441128 20.0230719,52.5441128 C20.2562647,52.5441128 20.6060538,52.1928501 20.7226502,52.1928501 C20.7226502,52.1928501 20.4894574,51.4903247 20.4894574,51.139062 C20.372861,51.2561495 20.0230719,51.2561495 20.0230719,50.7877993 C20.1396683,51.0219744 20.372861,50.7877993 20.4894574,50.6707117 C20.6060538,50.5536241 21.1890357,49.6169236 22.1218068,49.6169236 C22.3549995,49.6169236 22.5881923,49.7340111 22.7047887,49.8510987 C22.3549995,50.2023614 22.7047887,50.5536241 22.9379815,50.5536241 C21.7720176,51.0219744 21.3056321,51.139062 21.3056321,52.0757625 C21.3056321,52.5441128 21.4222285,52.8953755 21.7720176,52.7782879 C21.6554212,52.8953755 21.5388249,52.8953755 21.4222285,52.8953755 C21.1890357,52.8953755 21.1890357,52.7782879 21.0724393,52.7782879 C20.9558429,52.7782879 20.4894574,53.0124631 20.4894574,53.2466382 C20.4894574,53.3637258 20.4894574,53.4808134 20.7226502,53.4808134 C20.4894574,53.7149885 20.1396683,53.7149885 20.0230719,53.3637258 Z M23.0545778,44.2308954 C22.7047887,44.2308954 22.4715959,44.2308954 22.4715959,44.3479829 C22.5881923,44.5821581 22.8213851,44.5821581 23.0545778,44.2308954 Z M21.7720176,45.1675959 C22.0052104,45.0505084 22.2384032,45.1675959 22.3549995,45.1675959 L22.3549995,45.2846835 C21.888614,45.4017711 21.7720176,45.6359462 21.5388249,45.6359462 C21.3056321,45.6359462 21.0724393,45.4017711 21.1890357,45.0505084 C21.0724393,45.0505084 21.3056321,45.2846835 21.7720176,45.1675959 Z M15.0094274,56.6421777 C15.3592166,57.110528 15.7090057,56.6421777 16.1753913,56.6421777 C16.408584,56.6421777 16.6417768,56.7592653 16.7583732,57.110528 C17.2247587,56.4080026 16.6417768,56.0567399 16.408584,56.0567399 C16.5251804,55.9396523 16.9915659,55.7054772 17.2247587,56.1738275 C17.2247587,55.3542145 16.6417768,55.2371269 16.1753913,55.5883896 C16.0587949,55.2371269 16.2919876,55.0029518 16.6417768,55.0029518 C16.0587949,54.4175139 15.7090057,55.1200393 15.5924093,55.2371269 C15.3592166,55.5883896 14.5430419,55.0029518 14.1932527,54.6516891 C14.1932527,54.6516891 14.892831,53.9491636 14.892831,53.2466382 L14.892831,53.1295507 C15.0094274,53.1295507 15.0094274,53.2466382 15.1260238,53.2466382 C15.2426202,53.2466382 15.5924093,53.2466382 15.5924093,52.6612004 C15.475813,52.7782879 15.3592166,52.7782879 15.3592166,52.7782879 C14.7762347,52.7782879 13.6102708,50.9048868 12.2111142,50.9048868 C11.8613251,50.9048868 11.1617468,51.139062 10.8119576,51.6074122 C10.928554,51.7244998 11.0451504,51.958675 11.0451504,52.0757625 C10.928554,52.0757625 10.8119576,52.1928501 10.5787649,52.1928501 C11.2783432,52.4270252 12.5609034,53.0124631 12.9106925,53.2466382 C13.2604817,53.5979009 13.1438853,54.0662512 13.0272889,54.8858642 C12.7940962,55.5883896 12.444307,55.5883896 12.2111142,55.471302 C12.444307,55.7054772 12.6774998,55.8225648 12.7940962,55.8225648 C13.1438853,55.8225648 13.2604817,55.5883896 13.4936745,55.5883896 C13.8434636,55.5883896 14.5430419,56.0567399 14.5430419,56.4080026 C14.5430419,56.6421777 14.4264455,56.7592653 14.1932527,56.8763529 C14.3098491,57.110528 14.892831,57.110528 15.0094274,56.6421777 Z M30.7499391,57.110528 C30.5167463,56.9934404 30.40015,56.7592653 30.40015,56.5250902 C30.40015,56.1738275 31.0997283,55.7054772 31.4495174,55.7054772 C31.6827102,55.7054772 31.7993065,55.9396523 32.1490957,55.9396523 C32.3822885,55.9396523 32.6154812,55.8225648 32.7320776,55.5883896 C32.6154812,55.5883896 32.1490957,55.7054772 31.9159029,55.0029518 C31.6827102,54.1833388 31.6827102,53.5979009 32.0324993,53.3637258 C32.3822885,53.1295507 33.6648487,52.6612004 34.364427,52.3099377 C34.1312342,52.3099377 34.0146378,52.0757625 33.8980414,51.8415874 C33.8980414,51.7244998 33.8980414,51.4903247 34.1312342,51.3732371 C33.7814451,51.0219744 33.0818668,50.6707117 32.7320776,50.6707117 C31.332921,50.6707117 30.1669572,52.5441128 29.5839753,52.5441128 C29.4673789,52.5441128 29.4673789,52.5441128 29.3507825,52.4270252 C29.3507825,53.0124631 29.7005717,53.0124631 29.817168,53.0124631 C29.9337644,53.0124631 30.0503608,53.0124631 30.0503608,52.8953755 L30.0503608,53.0124631 C30.0503608,53.7149885 30.7499391,54.4175139 30.7499391,54.4175139 C30.40015,54.7687766 29.5839753,55.3542145 29.3507825,55.0029518 C29.2341861,54.8858642 28.884397,54.0662512 28.3014151,54.7687766 C28.6512042,54.7687766 28.884397,55.0029518 28.7678006,55.3542145 C28.3014151,55.0029518 27.7184332,55.0029518 27.7184332,55.9396523 C28.0682223,55.471302 28.5346078,55.8225648 28.5346078,55.8225648 C28.1848187,55.8225648 27.7184332,56.290915 28.1848187,56.8763529 C28.1848187,56.4080026 28.5346078,56.4080026 28.7678006,56.4080026 C29.2341861,56.4080026 29.5839753,56.8763529 29.9337644,56.4080026 C29.9337644,57.110528 30.5167463,57.110528 30.7499391,57.110528 Z M19.2068972,45.9872089 C19.2068972,46.1042965 18.9737044,45.9872089 18.9737044,45.9872089 C18.9737044,46.1042965 19.2068972,46.3384716 19.3234936,46.3384716 C19.44009,46.3384716 19.5566864,46.3384716 19.5566864,46.221384 C19.5566864,46.221384 20.372861,46.4555592 20.8392466,46.5726468 C20.7226502,46.8068219 20.6060538,47.040997 20.6060538,47.2751722 C20.2562647,47.040997 18.9737044,46.3384716 18.9737044,46.3384716 L18.5073189,46.9239095 C18.3907225,47.040997 18.1575298,46.8068219 18.1575298,46.6897343 L18.5073189,46.221384 C18.3907225,46.1042965 18.1575298,46.221384 18.0409334,46.221384 C18.0409334,46.1042965 18.2741261,45.8701213 18.6239153,45.9872089 C18.6239153,45.7530338 18.2741261,45.8701213 18.1575298,45.8701213 C18.2741261,45.7530338 18.5073189,45.5188586 18.8571081,45.7530338 L18.9737044,45.5188586 L18.7405117,45.1675959 L18.9737044,44.9334208 L19.2068972,45.1675959 L20.7226502,43.0600197 C20.7226502,43.0600197 21.0724393,42.9429321 21.1890357,42.9429321 C21.1890357,43.0600197 21.1890357,43.4112824 21.1890357,43.4112824 L19.6732827,45.5188586 L20.0230719,45.6359462 L19.7898791,45.8701213 L19.44009,45.6359462 L19.2068972,45.9872089 Z M24.5703308,45.6359462 C24.5703308,45.8701213 24.6869272,46.1042965 24.92012,45.9872089 C24.92012,46.221384 24.4537344,46.4555592 24.337138,46.1042965 C24.2205417,46.4555592 24.2205417,46.6897343 24.5703308,46.9239095 C24.337138,47.040997 24.1039453,47.040997 23.8707525,46.8068219 C23.6375598,47.040997 23.6375598,47.5093473 23.7541561,47.6264349 C23.7541561,47.6264349 22.9379815,48.0947852 22.3549995,47.7435225 C21.888614,47.5093473 21.5388249,47.2751722 20.9558429,47.2751722 C21.0724393,46.4555592 21.4222285,46.221384 22.2384032,46.1042965 C22.8213851,45.9872089 22.9379815,45.7530338 22.8213851,45.5188586 C22.5881923,45.5188586 22.2384032,45.6359462 22.2384032,45.6359462 C22.1218068,45.5188586 22.2384032,45.4017711 22.2384032,45.4017711 L22.2384032,45.1675959 C22.7047887,45.1675959 22.7047887,45.0505084 22.7047887,45.0505084 C22.8213851,44.5821581 22.3549995,44.5821581 22.0052104,44.8163332 C21.888614,44.6992456 21.888614,44.4650705 21.888614,44.4650705 L21.7720176,44.3479829 C21.7720176,44.2308954 22.2384032,43.9967202 22.3549995,43.8796327 C22.3549995,43.7625451 22.5881923,43.5283699 23.0545778,43.5283699 C23.1711742,43.4112824 23.0545778,42.8258445 22.9379815,42.708757 C22.9379815,42.708757 22.9379815,42.5916694 22.9379815,42.708757 C23.1711742,42.8258445 23.2877706,43.2941948 23.404367,43.2941948 L23.9873489,42.9429321 L24.1039453,43.6454575 C24.2205417,43.7625451 24.6869272,43.6454575 24.8035236,43.7625451 L24.8035236,43.8796327 C24.6869272,43.8796327 24.2205417,44.1138078 24.1039453,44.2308954 C24.8035236,44.8163332 24.5703308,45.4017711 24.5703308,45.6359462 Z" id="Shape" fill="#FFFFFF"></path>
                <g id="Group" transform="translate(54.000000, 20.000000)">
                    <g id="Centraal" transform="translate(0.096154, 0.000000)" fill="#000000">
                        <path d="M4.38461538,0.984615385 C5.35897436,0.984615385 5.96794871,1.1076923 6.4551282,1.35384615 L6.33333333,3.32307692 L5.96794871,3.32307692 L5.96794871,3.07692307 C5.72435897,2.21538461 5.35897436,1.84615384 4.26282051,1.84615384 C2.80128205,1.84615384 1.46153846,3.32307692 1.46153846,5.78461538 C1.46153846,8.4923077 2.80128205,9.60000002 4.14102564,9.60000002 C5.23717948,9.60000002 5.72435897,9.23076922 6.08974359,8.4923077 L6.21153846,8.12307692 L6.57692307,8.12307692 L6.4551282,10.0923077 C5.96794871,10.3384615 4.99358974,10.5846154 3.89743589,10.5846154 C1.82692307,10.5846154 -3.10862447e-15,8.98461538 -3.10862447e-15,6.03076923 C-3.10862447e-15,3.07692307 2.07051282,0.984615385 4.38461538,0.984615385 Z" id="Shape"></path>
                        <path d="M10.8397436,3.44615384 C12.423077,3.44615384 13.2756411,4.43076923 13.2756411,6.15384616 C13.2756411,6.39999999 13.2756411,6.76923076 13.2756411,7.13846154 L9.01282055,7.13846154 C9.01282055,8.73846154 9.98717945,9.72307692 11.0833334,9.72307692 C11.8141026,9.72307692 12.5448718,9.47692311 13.1538462,9.10769231 C13.1538462,9.23076922 13.1538462,9.35384611 13.1538462,9.47692311 C13.1538462,10.0923077 12.1794872,10.7076923 10.7179488,10.7076923 C9.13461535,10.7076923 7.79487179,9.47692311 7.79487179,7.38461538 C7.79487179,4.8 9.25641025,3.44615384 10.8397436,3.44615384 Z M12.1794872,6.27692307 C12.1794872,4.8 11.5705129,4.18461539 10.7179488,4.18461539 C9.98717945,4.18461539 9.13461535,5.16923077 9.13461535,6.27692307 L12.1794872,6.27692307 Z" id="Shape"></path>
                        <path d="M14.4935898,10.2153846 C14.8589744,10.0923077 15.224359,9.72307692 15.224359,9.47692311 L15.224359,4.55384616 L14.25,4.18461539 L14.25,3.81538461 C14.8589744,3.56923076 15.5897436,3.56923076 15.9551283,3.56923076 L16.3205129,3.56923076 L16.3205129,4.3076923 C16.8076924,3.81538461 17.6602565,3.44615384 18.3910257,3.44615384 C19.6089744,3.44615384 20.4615385,4.18461539 20.4615385,5.66153846 L20.4615385,9.72307692 L21.1923077,9.96923081 L21.1923077,10.2153846 C20.8269231,10.3384615 20.3397436,10.4615384 19.7307693,10.4615384 C19.4871795,10.4615384 19.1217949,10.4615384 18.7564103,10.3384615 L18.7564103,10.0923077 C19.1217949,9.96923081 19.2435898,9.60000002 19.2435898,9.10769231 L19.2435898,6.39999999 C19.2435898,4.92307693 18.6346154,4.43076924 17.7820513,4.43076924 C17.173077,4.43076924 16.5641026,4.67692307 16.3205129,4.92307693 L16.3205129,9.84615382 L17.173077,10.0923077 L17.173077,10.3384615 C16.6858975,10.4615384 16.198718,10.5846154 15.4679488,10.5846154 C15.1025641,10.5846154 14.7371795,10.5846154 14.3717949,10.4615384 L14.4935898,10.2153846 Z" id="Shape"></path>
                        <path d="M23.1410256,6.52307693 L23.1410256,4.55384616 L22.4102564,4.55384616 L22.4102564,4.06153847 L23.9935897,2.46153847 L24.4807692,2.46153847 L24.4807692,3.81538462 L26.4294871,3.81538462 L26.3076923,4.55384616 L24.4807692,4.55384616 L24.4807692,6.4 C24.4807692,7.01538462 24.4807692,7.50769231 24.4807692,8.12307693 C24.4807692,9.35384612 24.8461539,9.72307692 25.3333334,9.72307692 C25.6987179,9.72307692 26.0641026,9.60000002 26.4294871,9.35384612 L26.5512821,9.35384612 C26.5512821,10.2153846 25.9423077,10.5846154 24.9679487,10.5846154 C23.8717949,10.5846154 23.2628206,9.96923082 23.2628206,8.61538462 C23.1410256,7.87692308 23.1410256,7.13846154 23.1410256,6.52307693 Z" id="Shape"></path>
                        <path d="M27.0384615,10.2153846 C27.4038461,10.0923077 27.7692307,9.72307692 27.7692307,9.47692312 L27.7692307,4.55384616 L26.9166666,4.06153847 L26.9166666,3.6923077 C27.525641,3.44615385 28.2564102,3.44615385 28.6217948,3.44615385 L28.9871794,3.44615385 L28.9871794,4.43076924 L29.352564,3.93846154 C29.7179487,3.56923077 30.0833333,3.32307693 30.5705128,3.32307693 C31.0576923,3.32307693 31.301282,3.56923077 31.301282,3.93846154 C31.301282,4.18461539 31.1794871,4.55384616 31.0576923,4.8 C30.8141025,4.55384616 30.4487179,4.43076924 30.2051282,4.43076924 C29.7179487,4.43076924 29.352564,4.67692308 28.9871794,5.04615385 L28.9871794,9.72307692 L29.9615384,9.96923081 L29.9615384,10.2153846 C29.4743589,10.3384615 28.9871794,10.4615384 28.1346153,10.4615384 C27.7692307,10.4615384 27.2820512,10.4615384 27.0384615,10.3384615 L27.0384615,10.2153846 Z" id="Shape"></path>
                        <path d="M35.4423076,6.64615385 L35.4423076,6.27692307 C35.4423076,4.67692307 35.076923,4.43076923 34.2243589,4.43076923 C33.4935897,4.43076923 32.6410256,4.8 32.0320512,5.41538462 C32.0320512,5.29230769 32.0320512,5.16923077 32.0320512,4.92307693 C32.0320512,3.93846153 32.7628205,3.44615384 34.3461538,3.44615384 C35.8076923,3.44615384 36.6602564,4.18461539 36.6602564,5.41538462 C36.6602564,5.78461539 36.6602564,6.39999999 36.6602564,6.89230769 L36.6602564,9.23076922 C36.7820512,9.47692311 37.025641,9.72307692 37.2692307,9.96923081 C37.025641,10.2153846 36.6602564,10.4615384 36.2948717,10.7076923 C36.051282,10.5846154 35.8076923,10.3384615 35.6858974,9.96923081 C35.3205129,10.3384615 34.4679487,10.7076923 33.7371794,10.7076923 C32.6410256,10.7076923 31.9102564,9.96923081 31.9102564,9.10769231 C31.7884615,7.75384615 33.1282051,6.64615385 35.4423076,6.64615385 Z M34.102564,9.72307692 C34.5897435,9.72307692 35.076923,9.60000002 35.4423076,9.35384611 L35.4423076,7.26153847 C33.8589743,7.26153847 32.8846153,7.99999999 32.8846153,8.73846154 C33.0064103,9.35384611 33.3717949,9.72307692 34.102564,9.72307692 Z" id="Shape"></path>
                        <path d="M42.0192307,6.64615385 L42.0192307,6.27692307 C42.0192307,4.67692307 41.6538461,4.43076923 40.801282,4.43076923 C40.0705129,4.43076923 39.2179487,4.8 38.6089743,5.41538462 C38.6089743,5.29230769 38.6089743,5.16923077 38.6089743,4.92307693 C38.6089743,3.93846153 39.3397436,3.44615384 40.923077,3.44615384 C42.3846153,3.44615384 43.2371794,4.18461539 43.2371794,5.41538462 C43.2371794,5.78461539 43.2371794,6.39999999 43.2371794,6.89230769 L43.2371794,9.23076922 C43.3589743,9.47692311 43.602564,9.72307692 43.8461539,9.96923081 C43.602564,10.2153846 43.2371794,10.4615384 42.8717949,10.7076923 C42.6282051,10.5846154 42.3846153,10.3384615 42.2628206,9.96923081 C41.8974359,10.3384615 41.0448717,10.7076923 40.3141026,10.7076923 C39.2179487,10.7076923 38.4871794,9.96923081 38.4871794,9.10769231 C38.2435897,7.75384615 39.7051283,6.64615385 42.0192307,6.64615385 Z M40.6794871,9.72307692 C41.1666666,9.72307692 41.6538461,9.60000002 42.0192307,9.35384611 L42.0192307,7.26153847 C40.4358974,7.26153847 39.4615384,7.99999999 39.4615384,8.73846154 C39.4615384,9.35384611 39.948718,9.72307692 40.6794871,9.72307692 Z" id="Shape"></path>
                        <path d="M45.0641026,10.2153846 C45.4294871,10.0923077 45.7948717,9.72307692 45.7948717,9.47692312 L45.7948717,1.10769231 L44.8205129,0.738461535 L44.8205129,0.246153845 C45.4294871,8.8817842e-16 46.1602564,8.8817842e-16 46.525641,8.8817842e-16 L47.0128206,8.8817842e-16 L46.8910257,0.861538465 L46.8910257,9.84615382 L47.7435897,10.0923077 L47.7435897,10.3384615 C47.2564103,10.4615384 46.7692307,10.5846154 46.0384616,10.5846154 C45.673077,10.5846154 45.3076923,10.5846154 44.9423076,10.4615384 L44.9423076,10.2153846 L45.0641026,10.2153846 Z" id="Shape"></path>
                    </g>
                    <g id="Justitieel" transform="translate(51.737179, 0.000000)" fill="#000000">
                        <path d="M1.0961538,9.35384612 L1.0961538,1.84615385 L0.2435897,1.6 L0.2435897,1.23076924 C0.8525641,1.10769231 1.3397436,0.984615385 1.9487179,0.984615385 C2.4358974,0.984615385 2.801282,0.984615385 3.2884615,1.10769231 L3.2884615,1.47692308 C2.6794872,1.6 2.4358974,1.84615385 2.4358974,2.58461539 L2.4358974,9.10769232 C2.4358974,11.2 1.5833333,12.1846154 0.7307692,12.1846154 C0.4871795,12.1846154 0.2435897,12.1846154 -7.10542736e-15,12.0615384 L-7.10542736e-15,11.8153846 C0.6089743,11.5692308 1.0961538,10.5846154 1.0961538,9.35384612 Z" id="Shape"></path>
                        <path d="M4.8717949,4.55384616 L4.0192308,4.18461539 L4.0192308,3.93846154 C4.6282051,3.6923077 5.2371795,3.6923077 5.6025641,3.6923077 L6.0897436,3.6923077 L5.9679487,4.55384616 L5.9679487,7.63076924 C5.9679487,9.10769231 6.4551282,9.60000002 7.3076923,9.60000002 C7.7948718,9.60000002 8.4038461,9.35384611 8.7692308,9.23076922 L8.7692308,4.55384616 L7.9166667,4.18461539 L7.9166667,3.93846154 C8.525641,3.6923077 9.1346154,3.6923077 9.5,3.6923077 L9.9871795,3.6923077 L9.8653846,4.55384616 L9.8653846,9.47692311 C9.9871795,9.72307692 10.2307692,9.96923081 10.3525641,10.2153846 C10.1089743,10.4615384 9.7435897,10.7076923 9.3782051,10.9538461 C9.1346154,10.7076923 8.8910256,10.4615384 8.6474359,10.0923077 C8.2820513,10.4615384 7.4294872,10.8307692 6.5769231,10.8307692 C5.3589743,10.8307692 4.6282051,10.0923077 4.6282051,8.4923077 L4.6282051,4.55384616 L4.8717949,4.55384616 Z" id="Shape"></path>
                        <path d="M11.8141026,8.86153847 C12.4230769,9.47692311 13.0320513,9.72307692 13.8846154,9.72307692 C14.7371795,9.72307692 15.1025641,9.35384611 15.1025641,8.86153847 C15.1025641,8.36923077 14.8589743,7.99999999 13.8846154,7.63076924 L13.1538461,7.38461539 C12.301282,7.01538462 11.8141026,6.39999999 11.8141026,5.53846153 C11.8141026,4.43076924 12.7884615,3.44615384 14.3717949,3.44615384 C15.4679487,3.44615384 15.9551282,3.81538461 15.9551282,4.3076923 C15.9551282,4.55384616 15.9551282,4.67692307 15.8333333,4.92307693 C15.3461538,4.55384616 14.7371795,4.43076924 14.25,4.43076924 C13.275641,4.43076924 12.9102564,4.8 12.9102564,5.29230769 C12.9102564,5.78461539 13.1538461,6.15384616 14.0064102,6.39999999 L14.7371795,6.64615385 C15.7115384,7.01538462 16.1987179,7.63076924 16.1987179,8.4923077 C16.1987179,9.60000002 15.1025641,10.5846154 13.5192308,10.5846154 C12.301282,10.5846154 11.6923077,10.2153846 11.6923077,9.35384611 C11.6923077,9.23076922 11.8141026,8.98461538 11.8141026,8.86153847 Z" id="Shape"></path>
                        <path d="M18.025641,6.52307693 L18.025641,4.55384616 L17.2948718,4.55384616 L17.2948718,4.06153847 L18.8782051,2.46153847 L19.3653846,2.46153847 L19.3653846,3.81538462 L21.3141026,3.81538462 L21.1923077,4.55384616 L19.1217949,4.55384616 L19.1217949,6.4 C19.1217949,7.01538462 19.1217949,7.50769231 19.1217949,8.12307693 C19.1217949,9.35384612 19.4871795,9.72307692 19.974359,9.72307692 C20.3397436,9.72307692 20.7051282,9.60000002 21.0705128,9.35384612 L21.1923077,9.35384612 C21.1923077,10.2153846 20.5833333,10.5846154 19.6089743,10.5846154 C18.5128205,10.5846154 17.9038461,9.96923082 17.9038461,8.61538462 C17.9038461,7.87692308 17.9038461,7.13846154 18.025641,6.52307693 Z" id="Shape"></path>
                        <path d="M21.9230769,10.2153846 C22.2884615,10.0923077 22.6538461,9.72307691 22.6538461,9.47692311 L22.6538461,4.55384615 L21.6794872,4.18461538 L21.6794872,3.93846153 C22.2884615,3.69230769 23.0192308,3.69230769 23.3846154,3.69230769 L23.8717949,3.69230769 L23.75,4.43076923 L23.75,9.96923081 L24.6025641,10.2153846 L24.6025641,10.4615384 C24.1153846,10.5846154 23.6282051,10.7076923 22.8974359,10.7076923 C22.5320513,10.7076923 22.1666667,10.7076923 21.801282,10.5846154 L21.801282,10.2153846 L21.9230769,10.2153846 Z M22.5320513,1.35384615 C22.5320513,0.861538465 22.8974359,0.492307695 23.3846154,0.492307695 C23.75,0.492307695 24.1153846,0.738461535 24.1153846,1.23076923 C24.1153846,1.72307692 23.75,2.09230769 23.2628205,2.09230769 C22.775641,2.21538461 22.5320513,1.84615384 22.5320513,1.35384615 Z" id="Shape"></path>
                        <path d="M26.551282,6.52307693 L26.551282,4.55384616 L25.8205128,4.55384616 L25.8205128,4.06153847 L27.4038461,2.46153847 L27.8910256,2.46153847 L27.8910256,3.81538462 L29.8397436,3.81538462 L29.7179487,4.55384616 L27.6474359,4.55384616 L27.6474359,6.4 C27.6474359,7.01538462 27.6474359,7.50769231 27.6474359,8.12307693 C27.6474359,9.35384612 28.0128205,9.72307692 28.5,9.72307692 C28.8653846,9.72307692 29.2307692,9.60000002 29.5961538,9.35384612 L29.7179487,9.35384612 C29.7179487,10.2153846 29.1089743,10.5846154 28.1346154,10.5846154 C27.0384615,10.5846154 26.4294872,9.96923082 26.4294872,8.61538462 C26.4294872,7.87692308 26.551282,7.13846154 26.551282,6.52307693 Z" id="Shape"></path>
                        <path d="M30.4487179,10.2153846 C30.8141026,10.0923077 31.1794872,9.72307691 31.1794872,9.47692311 L31.1794872,4.55384615 L30.2051282,4.18461538 L30.2051282,3.93846153 C30.8141026,3.69230769 31.5448718,3.69230769 31.9102564,3.69230769 L32.3974359,3.69230769 L32.275641,4.43076923 L32.275641,9.96923081 L33.1282051,10.2153846 L33.1282051,10.4615384 C32.6410256,10.5846154 32.1538461,10.7076923 31.4230769,10.7076923 C31.0576923,10.7076923 30.6923077,10.7076923 30.3269231,10.5846154 L30.3269231,10.2153846 L30.4487179,10.2153846 Z M31.0576923,1.35384615 C31.0576923,0.861538465 31.4230769,0.492307695 31.9102564,0.492307695 C32.275641,0.492307695 32.6410256,0.738461535 32.6410256,1.23076923 C32.6410256,1.72307692 32.275641,2.09230769 31.7884615,2.09230769 C31.4230769,2.21538461 31.0576923,1.84615384 31.0576923,1.35384615 Z" id="Shape"></path>
                        <path d="M37.2692308,3.44615384 C38.8525641,3.44615384 39.7051282,4.43076923 39.7051282,6.15384616 C39.7051282,6.39999999 39.7051282,6.76923076 39.7051282,7.13846154 L35.4423077,7.13846154 C35.4423077,8.73846154 36.4166667,9.72307692 37.5128205,9.72307692 C38.2435897,9.72307692 38.974359,9.47692311 39.5833333,9.10769231 C39.5833333,9.23076922 39.5833333,9.35384611 39.5833333,9.47692311 C39.5833333,10.0923077 38.6089743,10.7076923 37.1474359,10.7076923 C35.5641026,10.7076923 34.224359,9.47692311 34.224359,7.38461538 C34.3461538,4.8 35.8076923,3.44615384 37.2692308,3.44615384 Z M38.6089743,6.27692307 C38.6089743,4.8 38,4.18461539 37.1474359,4.18461539 C36.4166667,4.18461539 35.5641026,5.16923077 35.5641026,6.27692307 L38.6089743,6.27692307 Z" id="Shape"></path>
                        <path d="M43.8461538,3.44615384 C45.4294872,3.44615384 46.2820513,4.43076923 46.2820513,6.15384616 C46.2820513,6.39999999 46.2820513,6.76923076 46.2820513,7.13846154 L42.0192308,7.13846154 C42.0192308,8.73846154 42.9935897,9.72307692 44.0897436,9.72307692 C44.8205128,9.72307692 45.551282,9.47692311 46.1602564,9.10769231 C46.1602564,9.23076922 46.1602564,9.35384611 46.1602564,9.47692311 C46.1602564,10.0923077 45.1858974,10.7076923 43.724359,10.7076923 C42.1410256,10.7076923 40.801282,9.47692311 40.801282,7.38461538 C40.9230769,4.8 42.3846154,3.44615384 43.8461538,3.44615384 Z M45.1858974,6.27692307 C45.1858974,4.8 44.5769231,4.18461539 43.724359,4.18461539 C42.9935897,4.18461539 42.1410256,5.16923077 42.1410256,6.27692307 L45.1858974,6.27692307 Z" id="Shape"></path>
                        <path d="M47.6217945,10.2153846 C47.9871795,10.0923077 48.3525645,9.72307692 48.3525645,9.47692312 L48.3525645,1.10769231 L47.3782055,0.738461535 L47.3782055,0.246153845 C47.9871795,8.8817842e-16 48.7179485,8.8817842e-16 49.0833335,8.8817842e-16 L49.5705125,8.8817842e-16 L49.4487175,0.861538465 L49.4487175,9.84615382 L50.3012825,10.0923077 L50.3012825,10.3384615 C49.8141025,10.4615384 49.3269235,10.5846154 48.5961535,10.5846154 C48.2307695,10.5846154 47.8653845,10.5846154 47.4999995,10.4615384 L47.4999995,10.2153846 L47.6217945,10.2153846 Z" id="Shape"></path>
                    </g>
                    <g id="Incassobureau" transform="translate(0.000000, 15.015385)" fill="#000000">
                        <path d="M-7.10542736e-15,10.2153846 C0.48718,10.0923077 0.852564,9.84615382 0.852564,9.10769232 L0.852564,1.96923077 L-7.10542736e-15,1.72307693 L-7.10542736e-15,1.35384616 C0.608975,1.23076924 1.096154,1.10769231 1.705128,1.10769231 C2.192308,1.10769231 2.679487,1.10769231 3.044872,1.23076924 L3.044872,1.47692308 C2.435898,1.6 2.192308,1.96923077 2.192308,2.46153847 L2.192308,9.72307692 L3.044872,9.96923081 L3.044872,10.3384615 C2.557692,10.4615384 2.070513,10.5846154 1.339744,10.5846154 C0.730769,10.5846154 0.365385,10.5846154 -7.10542736e-15,10.4615384 L-7.10542736e-15,10.2153846 Z" id="Shape"></path>
                        <path d="M4.384616,10.2153846 C4.75,10.0923077 5.115385,9.72307692 5.115385,9.47692311 L5.115385,4.55384616 L4.141026,4.18461539 L4.141026,3.81538461 C4.75,3.56923076 5.480769,3.56923076 5.846154,3.56923076 L6.211539,3.56923076 L6.211539,4.3076923 C6.698718,3.81538461 7.551282,3.44615384 8.282051,3.44615384 C9.5,3.44615384 10.352564,4.18461539 10.352564,5.66153846 L10.352564,9.72307692 L11.083334,9.96923081 L11.083334,10.2153846 C10.717949,10.3384615 10.230769,10.4615384 9.621795,10.4615384 C9.378205,10.4615384 9.012821,10.4615384 8.647436,10.3384615 L8.647436,10.0923077 C9.012821,9.96923081 9.134616,9.60000002 9.134616,9.10769231 L9.134616,6.39999999 C9.134616,4.92307693 8.525641,4.43076924 7.673077,4.43076924 C7.064103,4.43076924 6.455128,4.67692307 6.211539,4.92307693 L6.211539,9.84615382 L7.064103,10.0923077 L7.064103,10.3384615 C6.576923,10.4615384 6.089744,10.5846154 5.358975,10.5846154 C4.99359,10.5846154 4.628205,10.5846154 4.262821,10.4615384 L4.384616,10.2153846 Z" id="Shape"></path>
                        <path d="M15.589744,3.44615384 C16.807692,3.44615384 17.173077,3.81538461 17.173077,4.3076923 C17.173077,4.55384616 17.051282,4.8 17.051282,5.04615384 C16.564103,4.55384616 15.955128,4.43076923 15.346154,4.43076923 C14.371795,4.43076923 13.519231,5.41538462 13.519231,7.13846154 C13.519231,8.86153847 14.371795,9.72307692 15.589744,9.72307692 C16.198718,9.72307692 16.807692,9.47692311 17.173077,9.10769231 C17.173077,9.23076922 17.294872,9.35384611 17.294872,9.47692311 C17.294872,10.2153846 16.564103,10.7076923 15.224359,10.7076923 C13.641026,10.7076923 12.301282,9.35384611 12.301282,7.38461538 C12.301282,4.92307693 13.762821,3.44615384 15.589744,3.44615384 Z" id="Shape"></path>
                        <path d="M21.801282,6.64615385 L21.801282,6.27692307 C21.801282,4.67692307 21.435898,4.43076923 20.583334,4.43076923 C19.852564,4.43076923 19,4.8 18.391026,5.41538462 C18.391026,5.29230769 18.391026,5.16923077 18.391026,4.92307693 C18.391026,3.93846153 19.121795,3.44615384 20.705128,3.44615384 C22.166667,3.44615384 23.019231,4.18461539 23.019231,5.41538462 C23.019231,5.78461539 23.019231,6.39999999 23.019231,6.89230769 L23.019231,9.23076922 C23.141026,9.47692311 23.384616,9.72307692 23.628205,9.96923081 C23.384616,10.2153846 23.019231,10.4615384 22.653846,10.7076923 C22.410257,10.5846154 22.166667,10.3384615 22.044872,9.96923081 C21.679487,10.3384615 20.826923,10.7076923 20.096154,10.7076923 C19,10.7076923 18.269231,9.96923081 18.269231,9.10769231 C18.025641,7.75384615 19.365385,6.64615385 21.801282,6.64615385 Z M20.461539,9.72307692 C20.948718,9.72307692 21.435898,9.60000002 21.801282,9.35384611 L21.801282,7.26153847 C20.217949,7.26153847 19.24359,7.99999999 19.24359,8.73846154 C19.24359,9.35384611 19.608975,9.72307692 20.461539,9.72307692 Z" id="Shape"></path>
                        <path d="M24.724359,8.86153847 C25.333334,9.47692311 25.942308,9.72307692 26.794872,9.72307692 C27.647436,9.72307692 28.012821,9.35384611 28.012821,8.86153847 C28.012821,8.36923077 27.769231,7.99999999 26.794872,7.63076924 L26.064103,7.38461539 C25.211539,7.01538462 24.724359,6.39999999 24.724359,5.53846153 C24.724359,4.43076924 25.698718,3.44615384 27.282051,3.44615384 C28.378205,3.44615384 28.865385,3.81538461 28.865385,4.3076923 C28.865385,4.55384616 28.865385,4.67692307 28.74359,4.92307693 C28.25641,4.55384616 27.647436,4.43076924 27.160257,4.43076924 C26.185898,4.43076924 25.820513,4.8 25.820513,5.29230769 C25.820513,5.78461539 26.064103,6.15384616 26.916667,6.39999999 L27.647436,6.64615385 C28.621795,7.01538462 29.108975,7.63076924 29.108975,8.4923077 C29.108975,9.60000002 28.012821,10.5846154 26.429487,10.5846154 C25.211539,10.5846154 24.602564,10.2153846 24.602564,9.35384611 C24.602564,9.23076922 24.602564,8.98461538 24.724359,8.86153847 Z" id="Shape"></path>
                        <path d="M30.083334,8.86153847 C30.692308,9.47692311 31.301282,9.72307692 32.153846,9.72307692 C33.00641,9.72307692 33.371795,9.35384611 33.371795,8.86153847 C33.371795,8.36923077 33.128205,7.99999999 32.153846,7.63076924 L31.423077,7.38461539 C30.570513,7.01538462 30.083334,6.39999999 30.083334,5.53846153 C30.083334,4.43076924 31.057692,3.44615384 32.641026,3.44615384 C33.73718,3.44615384 34.224359,3.81538461 34.224359,4.3076923 C34.224359,4.55384616 34.224359,4.67692307 34.102564,4.92307693 C33.615385,4.55384616 33.00641,4.43076924 32.519231,4.43076924 C31.544872,4.43076924 31.179487,4.8 31.179487,5.29230769 C31.179487,5.78461539 31.423077,6.15384616 32.275641,6.39999999 L33.00641,6.64615385 C33.980769,7.01538462 34.467949,7.63076924 34.467949,8.4923077 C34.467949,9.60000002 33.371795,10.5846154 31.788462,10.5846154 C30.570513,10.5846154 29.961539,10.2153846 29.961539,9.35384611 C29.961539,9.23076922 29.961539,8.98461538 30.083334,8.86153847 Z" id="Shape"></path>
                        <path d="M38.852564,3.44615384 C40.679487,3.44615384 42.019231,4.8 42.019231,6.76923076 C42.019231,9.10769231 40.314103,10.7076923 38.608975,10.7076923 C36.903846,10.7076923 35.442308,9.47692311 35.442308,7.38461538 C35.442308,4.92307693 37.025641,3.44615384 38.852564,3.44615384 Z M38.730769,9.84615382 C39.705128,9.84615382 40.679487,8.86153847 40.679487,6.89230769 C40.679487,5.16923077 39.826923,4.3076923 38.730769,4.3076923 C37.75641,4.3076923 36.782051,5.29230769 36.782051,7.26153847 C36.782051,8.86153847 37.634616,9.84615382 38.730769,9.84615382 Z" id="Shape"></path>
                        <path d="M43.967949,8.98461539 L43.967949,0.984615385 L42.99359,0.615384615 L42.99359,0.246153845 C43.602564,8.8817842e-16 44.211539,8.8817842e-16 44.698718,8.8817842e-16 L45.185898,8.8817842e-16 L45.064103,0.861538465 L45.064103,4.18461539 C45.551282,3.81538462 46.160257,3.56923077 46.891026,3.56923077 C48.352564,3.56923077 49.448718,4.67692308 49.448718,6.64615385 C49.448718,9.35384611 47.74359,10.7076923 45.794872,10.7076923 C45.185898,10.7076923 44.333334,10.5846154 43.724359,10.4615384 C43.967949,9.96923081 43.967949,9.35384611 43.967949,8.98461539 Z M45.916667,9.72307692 C47.25641,9.72307692 48.352564,8.86153846 48.352564,6.76923077 C48.352564,5.2923077 47.5,4.43076924 46.525641,4.43076924 C45.916667,4.43076924 45.551282,4.55384616 45.185898,4.8 L45.185898,9.72307692 C45.429487,9.72307692 45.673077,9.72307692 45.916667,9.72307692 Z" id="Shape"></path>
                        <path d="M51.519231,4.55384616 L50.666667,4.18461539 L50.666667,3.93846154 C51.275641,3.6923077 51.884616,3.6923077 52.25,3.6923077 L52.73718,3.6923077 L52.615385,4.55384616 L52.615385,7.63076924 C52.615385,9.10769231 53.102564,9.60000002 53.955128,9.60000002 C54.442308,9.60000002 55.051282,9.35384611 55.416667,9.23076922 L55.416667,4.55384616 L54.564103,4.18461539 L54.564103,3.93846154 C55.173077,3.6923077 55.782051,3.6923077 56.147436,3.6923077 L56.634616,3.6923077 L56.512821,4.55384616 L56.512821,9.47692311 C56.634616,9.72307692 56.878205,9.96923081 57,10.2153846 C56.75641,10.4615384 56.391026,10.7076923 56.025641,10.9538461 C55.782051,10.7076923 55.538462,10.4615384 55.294872,10.0923077 C54.929487,10.4615384 54.076923,10.8307692 53.224359,10.8307692 C52.00641,10.8307692 51.275641,10.0923077 51.275641,8.4923077 L51.275641,4.55384616 L51.519231,4.55384616 Z" id="Shape"></path>
                        <path d="M58.583334,10.2153846 C58.948718,10.0923077 59.314103,9.72307692 59.314103,9.47692311 L59.314103,4.55384616 L58.339744,4.18461539 L58.339744,3.81538461 C58.948718,3.56923076 59.679487,3.56923076 60.044872,3.56923076 L60.410257,3.56923076 L60.410257,4.55384616 L60.775641,4.06153846 C61.141026,3.69230769 61.50641,3.44615384 61.99359,3.44615384 C62.480769,3.44615384 62.724359,3.69230769 62.724359,4.06153846 C62.724359,4.3076923 62.602564,4.67692307 62.480769,4.92307693 C62.23718,4.67692307 61.871795,4.55384616 61.628205,4.55384616 C61.141026,4.55384616 60.775641,4.8 60.410257,5.16923077 L60.410257,9.84615382 L61.384616,10.0923077 L61.384616,10.3384615 C60.897436,10.4615384 60.410257,10.5846154 59.557692,10.5846154 C59.192308,10.5846154 58.705128,10.5846154 58.461539,10.4615384 L58.583334,10.2153846 Z" id="Shape"></path>
                        <path d="M66.378205,3.44615384 C67.961539,3.44615384 68.814103,4.43076923 68.814103,6.15384616 C68.814103,6.39999999 68.814103,6.76923076 68.814103,7.13846154 L64.551282,7.13846154 C64.551282,8.73846154 65.525641,9.72307692 66.621795,9.72307692 C67.352564,9.72307692 68.083334,9.47692311 68.692308,9.10769231 C68.692308,9.23076922 68.692308,9.35384611 68.692308,9.47692311 C68.692308,10.0923077 67.717949,10.7076923 66.25641,10.7076923 C64.673077,10.7076923 63.333334,9.47692311 63.333334,7.38461538 C63.455128,4.8 64.916667,3.44615384 66.378205,3.44615384 Z M67.717949,6.27692307 C67.717949,4.8 67.108975,4.18461539 66.25641,4.18461539 C65.525641,4.18461539 64.673077,5.16923077 64.673077,6.27692307 L67.717949,6.27692307 Z" id="Shape"></path>
                        <path d="M73.685898,6.64615385 L73.685898,6.27692307 C73.685898,4.67692307 73.320513,4.43076923 72.467949,4.43076923 C71.73718,4.43076923 70.884616,4.8 70.275641,5.41538462 C70.275641,5.29230769 70.275641,5.16923077 70.275641,4.92307693 C70.275641,3.93846153 71.00641,3.44615384 72.589744,3.44615384 C74.051282,3.44615384 74.903846,4.18461539 74.903846,5.41538462 C74.903846,5.78461539 74.903846,6.39999999 74.903846,6.89230769 L74.903846,9.23076922 C75.025641,9.47692311 75.269231,9.72307692 75.512821,9.96923081 C75.269231,10.2153846 74.903846,10.4615384 74.538462,10.7076923 C74.294872,10.5846154 74.051282,10.3384615 73.929487,9.96923081 C73.564103,10.3384615 72.711539,10.7076923 71.980769,10.7076923 C70.884616,10.7076923 70.153846,9.96923081 70.153846,9.10769231 C69.910257,7.75384615 71.25,6.64615385 73.685898,6.64615385 Z M72.224359,9.72307692 C72.711539,9.72307692 73.198718,9.60000002 73.564103,9.35384611 L73.564103,7.26153847 C71.980769,7.26153847 71.00641,7.99999999 71.00641,8.73846154 C71.128205,9.35384611 71.49359,9.72307692 72.224359,9.72307692 Z" id="Shape"></path>
                        <path d="M77.217949,4.55384616 L76.365385,4.18461539 L76.365385,3.93846154 C76.974359,3.6923077 77.583334,3.6923077 77.948718,3.6923077 L78.435898,3.6923077 L78.314103,4.55384616 L78.314103,7.63076924 C78.314103,9.10769231 78.801282,9.60000002 79.653846,9.60000002 C80.141026,9.60000002 80.75,9.35384611 81.115385,9.23076922 L81.115385,4.55384616 L80.262821,4.18461539 L80.262821,3.93846154 C80.871795,3.6923077 81.480769,3.6923077 81.846154,3.6923077 L82.333334,3.6923077 L82.211539,4.55384616 L82.211539,9.47692311 C82.333334,9.72307692 82.576923,9.96923081 82.698718,10.2153846 C82.455128,10.4615384 82.089744,10.7076923 81.724359,10.9538461 C81.480769,10.7076923 81.23718,10.4615384 80.99359,10.0923077 C80.628205,10.4615384 79.775641,10.8307692 78.923077,10.8307692 C77.705128,10.8307692 76.974359,10.0923077 76.974359,8.4923077 L76.974359,4.55384616 L77.217949,4.55384616 Z" id="Shape"></path>
                    </g>
                    <g id="Ministerie-van-Justitie-en-Veiligheid" transform="translate(0.000000, 30.846154)" fill="#1D1D1B">
                        <g id="Ministerie" transform="translate(0.000000, 0.153846)">
                            <path d="M0.0894819468,7.07132873 C0.26844584,6.98181818 0.447409733,6.89230771 0.447409733,6.71328676 L1.78963893,1.07412589 L1.25274725,0.984615418 L1.25274725,0.716083927 C1.5211931,0.626573455 2.05808478,0.626573455 2.32653061,0.626573455 L2.6844584,0.626573455 L3.57927787,5.63916087 L5.27943485,0.626573455 L5.54788069,0.626573455 C5.81632653,0.626573455 6.26373626,0.626573455 6.53218211,0.716083927 L6.53218211,0.984615418 L5.99529043,1.07412589 L6.26373626,6.89230771 L6.80062794,7.07132873 L6.80062794,7.25034967 C6.44270015,7.33986015 6.26373626,7.42937069 5.90580847,7.42937069 C5.45839874,7.42937069 5.1899529,7.42937069 5.01098901,7.33986015 L5.01098901,7.1608392 C5.1899529,7.07132873 5.3689168,6.98181818 5.3689168,6.62377629 L5.27943485,1.96923084 L3.40031397,7.51888116 L3.04238619,7.51888116 L1.96860282,1.96923084 L0.984301417,6.98181818 L1.61067504,7.1608392 L1.61067504,7.33986015 C1.3422292,7.42937069 1.07378336,7.51888116 0.715855573,7.51888116 C0.447409733,7.51888116 0.178963894,7.51888116 -4.4408921e-15,7.42937069 L0.0894819468,7.07132873 Z" id="Shape"></path>
                            <path d="M7.87441128,5.5496504 L8.23233907,3.40139862 L8.32182104,2.77482524 L7.69544742,2.59580422 L7.69544742,2.41678327 C8.05337521,2.32727273 8.41130301,2.23776225 8.76923081,2.23776225 C8.94819467,2.23776225 9.12715853,2.23776225 9.2166405,2.32727273 L8.67974884,5.37062938 C8.67974884,5.72867135 8.59026687,6.26573433 8.59026687,6.53426575 C8.59026687,6.89230771 8.67974884,7.07132873 9.03767663,7.1608392 L9.03767663,7.33986015 C8.8587127,7.42937069 8.59026687,7.51888116 8.23233907,7.51888116 C7.87441128,7.51888116 7.69544742,7.33986015 7.69544742,7.07132873 C7.69544742,6.62377629 7.78492938,5.90769236 7.87441128,5.5496504 Z M8.32182104,0.626573455 C8.32182104,0.268531491 8.59026687,1.77635684e-15 8.94819467,1.77635684e-15 C9.2166405,1.77635684e-15 9.39560443,0.179021018 9.39560443,0.537062982 C9.39560443,0.895104945 9.12715853,1.16363636 8.76923081,1.16363636 C8.59026687,1.16363636 8.32182104,0.984615418 8.32182104,0.626573455 Z" id="Shape"></path>
                            <path d="M10.5588697,2.77482524 L9.93249609,2.59580422 L9.93249609,2.41678327 C10.2904239,2.32727273 10.5588697,2.23776225 11.0062794,2.23776225 C11.1852433,2.23776225 11.2747253,2.23776225 11.4536892,2.32727273 L11.0957614,3.9384616 C11.5431711,2.86433571 12.2590267,2.23776225 12.9748822,2.23776225 C13.422292,2.23776225 13.7802198,2.59580422 13.7802198,3.22237767 C13.7802198,3.58041964 13.6907378,4.11748255 13.6012559,4.56503498 L13.422292,5.72867135 C13.422292,5.99720284 13.33281,6.3552448 13.33281,6.62377629 C13.33281,6.98181818 13.511774,7.07132873 13.8697017,7.1608392 L13.8697017,7.33986015 C13.6012559,7.42937069 13.33281,7.51888116 13.0643642,7.51888116 C12.7064364,7.51888116 12.5274726,7.33986015 12.5274726,7.07132873 C12.5274726,6.80279724 12.6169544,6.26573433 12.6169544,5.90769236 L12.7959184,4.65454545 C12.8854003,4.29650356 12.8854003,3.84895105 12.8854003,3.58041964 C12.8854003,3.1328672 12.7064364,2.95384618 12.4379906,2.95384618 C11.811617,2.95384618 11.0062794,4.11748255 10.9167975,5.5496504 L10.8273155,7.33986015 L9.93249609,7.33986015 L10.5588697,2.77482524 Z" id="Shape"></path>
                            <path d="M14.9434851,5.5496504 L15.3014129,3.40139862 L15.3908948,2.77482524 L14.7645212,2.59580422 L14.7645212,2.41678327 C15.1224489,2.32727273 15.4803767,2.23776225 15.8383045,2.23776225 C16.0172685,2.23776225 16.1962323,2.23776225 16.2857143,2.32727273 L15.8383045,5.46013993 C15.8383045,5.81818182 15.7488226,6.3552448 15.7488226,6.62377629 C15.7488226,6.98181818 15.8383045,7.1608392 16.1962323,7.25034967 L16.1962323,7.42937069 C16.0172685,7.51888116 15.7488226,7.60839164 15.3908948,7.60839164 C15.0329671,7.60839164 14.8540031,7.42937069 14.8540031,7.1608392 C14.8540031,6.62377629 14.9434851,5.90769236 14.9434851,5.5496504 Z M15.4803767,0.626573455 C15.4803767,0.268531491 15.7488226,1.77635684e-15 16.1067504,1.77635684e-15 C16.3751963,1.77635684e-15 16.5541601,0.179021018 16.5541601,0.537062982 C16.5541601,0.895104945 16.2857143,1.16363636 15.9277865,1.16363636 C15.6593407,1.16363636 15.4803767,0.984615418 15.4803767,0.626573455 Z" id="Shape"></path>
                            <path d="M16.733124,6.44475527 C17.0015699,6.71328676 17.3594976,6.89230771 17.8069074,6.89230771 C18.343799,6.89230771 18.7017268,6.62377629 18.7017268,6.17622378 C18.7017268,5.81818182 18.522763,5.63916087 18.0753532,5.10209796 L17.7174254,4.744056 C17.2700157,4.29650356 17.0910518,4.02797207 17.0910518,3.58041964 C17.0910518,2.86433571 17.7174254,2.14825178 18.7017268,2.14825178 C19.5070644,2.14825178 19.8649922,2.41678327 19.8649922,2.68531469 C19.8649922,2.86433571 19.7755102,3.1328672 19.6860283,3.22237767 C19.4175824,2.86433571 18.9701727,2.68531469 18.522763,2.68531469 C18.0753532,2.68531469 17.8069074,2.95384618 17.8069074,3.31188815 C17.8069074,3.58041964 17.8963893,3.75944058 18.433281,4.29650356 L18.7912088,4.65454545 C19.3281005,5.10209796 19.5070644,5.37062938 19.5070644,5.90769236 C19.5070644,6.71328676 18.7017268,7.42937069 17.5384615,7.42937069 C16.9120879,7.42937069 16.5541601,7.25034967 16.5541601,6.80279724 C16.6436421,6.62377629 16.6436421,6.53426575 16.733124,6.44475527 Z" id="Shape"></path>
                            <path d="M20.8492935,3.58041964 L21.0282575,2.86433571 C20.7598116,2.86433571 20.6703297,2.86433571 20.4018838,2.86433571 L20.4018838,2.68531469 C20.7598116,2.23776225 21.2967033,1.79020982 21.833595,1.43216785 L22.0125589,1.43216785 L21.833595,2.32727273 L22.1020408,2.32727273 C22.3704867,2.32727273 22.6389325,2.32727273 22.9073783,2.23776225 C22.9073783,2.68531469 22.6389325,2.86433571 22.0125589,2.86433571 L21.7441131,2.86433571 L21.4756672,4.02797207 C21.3861853,4.56503498 21.2967033,5.37062938 21.2967033,5.81818182 C21.2967033,6.53426575 21.6546311,6.80279724 22.1020408,6.80279724 C22.2810047,6.80279724 22.3704867,6.80279724 22.5494505,6.71328676 L22.5494505,6.89230771 C22.4599686,7.1608392 22.1020408,7.42937069 21.5651491,7.42937069 C20.8492935,7.42937069 20.4913658,6.98181818 20.4913658,6.08671331 C20.4913658,5.46013993 20.6703297,4.38601404 20.8492935,3.58041964 Z" id="Shape"></path>
                            <path d="M25.233909,2.14825178 C25.9497645,2.14825178 26.3971743,2.50629375 26.3971743,3.22237767 C26.3971743,4.47552451 25.144427,5.19160844 23.8916798,5.19160844 C23.8916798,6.44475527 24.2496076,6.80279724 24.8759812,6.80279724 C25.233909,6.80279724 25.7708006,6.62377629 26.0392465,6.26573433 C26.0392465,6.26573433 26.1287284,6.44475527 26.1287284,6.53426575 C26.1287284,7.07132873 25.4128728,7.42937069 24.6075354,7.42937069 C23.7127158,7.42937069 23.0863422,6.89230771 23.0863422,5.5496504 C23.0863422,3.22237767 24.2496076,2.14825178 25.233909,2.14825178 Z M25.5918367,3.40139862 C25.5918367,2.86433571 25.4128728,2.68531469 25.054945,2.68531469 C24.6075354,2.68531469 23.8916798,3.49090909 23.8916798,4.744056 C24.8759812,4.744056 25.5918367,4.20699302 25.5918367,3.40139862 Z" id="Shape"></path>
                            <path d="M27.4709576,2.77482524 L26.844584,2.59580422 L26.844584,2.41678327 C27.2025117,2.32727273 27.4709576,2.23776225 27.8288854,2.23776225 C28.0078493,2.23776225 28.0973313,2.23776225 28.2762951,2.32727273 L27.9183673,3.84895105 L28.455259,2.95384618 C28.7237049,2.50629375 28.9921507,2.32727273 29.3500785,2.32727273 C29.6185243,2.32727273 29.7080063,2.50629375 29.7080063,2.68531469 C29.7080063,2.86433571 29.7080063,3.04335665 29.6185243,3.22237767 C29.5290424,3.22237767 29.4395604,3.22237767 29.2605966,3.22237767 C28.6342229,3.22237767 27.9183673,3.9384616 27.8288854,5.90769236 L27.7394035,7.42937069 L26.844584,7.42937069 L27.4709576,2.77482524 Z" id="Shape"></path>
                            <path d="M30.155416,5.5496504 L30.5133438,3.40139862 L30.6028258,2.77482524 L29.9764521,2.59580422 L29.9764521,2.41678327 C30.3343799,2.32727273 30.6923077,2.23776225 31.0502355,2.23776225 C31.2291994,2.23776225 31.4081633,2.23776225 31.4976452,2.32727273 L31.0502355,5.46013993 C31.0502355,5.81818182 30.9607536,6.3552448 30.9607536,6.62377629 C30.9607536,6.98181818 31.0502355,7.1608392 31.4081633,7.25034967 L31.4081633,7.42937069 C31.2291994,7.51888116 30.9607536,7.60839164 30.6028258,7.60839164 C30.244898,7.60839164 30.065934,7.42937069 30.065934,7.1608392 C29.9764521,6.62377629 30.065934,5.90769236 30.155416,5.5496504 Z M30.6923077,0.626573455 C30.6923077,0.268531491 30.9607536,1.77635684e-15 31.3186813,1.77635684e-15 C31.5871272,1.77635684e-15 31.7660911,0.179021018 31.7660911,0.537062982 C31.7660911,0.895104945 31.4976452,1.16363636 31.1397174,1.16363636 C30.8712716,1.16363636 30.6923077,0.984615418 30.6923077,0.626573455 Z" id="Shape"></path>
                            <path d="M34.3610675,2.14825178 C35.0769231,2.14825178 35.5243328,2.50629375 35.5243328,3.22237767 C35.5243328,4.47552451 34.2715855,5.19160844 33.0188383,5.19160844 C33.0188383,6.44475527 33.3767661,6.80279724 34.0031397,6.80279724 C34.3610675,6.80279724 34.8979592,6.62377629 35.166405,6.26573433 C35.166405,6.26573433 35.255887,6.44475527 35.255887,6.53426575 C35.255887,7.07132873 34.5400314,7.42937069 33.7346939,7.42937069 C32.8398744,7.42937069 32.2135008,6.89230771 32.2135008,5.5496504 C32.2135008,3.22237767 33.3767661,2.14825178 34.3610675,2.14825178 Z M34.7189953,3.40139862 C34.7189953,2.86433571 34.5400314,2.68531469 34.1821036,2.68531469 C33.7346939,2.68531469 33.0188383,3.49090909 33.0188383,4.744056 C34.0031397,4.744056 34.7189953,4.20699302 34.7189953,3.40139862 Z" id="Shape"></path>
                        </g>
                        <g id="van" transform="translate(38.000000, 2.153846)">
                            <path d="M0.439814844,0.5538462 L0,0.369230775 L0,0.184615425 C0.351851861,0.092307675 0.527777756,1.77635684e-15 0.879629617,1.77635684e-15 C1.05555558,1.77635684e-15 1.14351849,1.77635684e-15 1.31944446,0.092307675 L1.58333334,4.52307697 C2.37499997,3.50769232 2.9027778,2.03076922 2.9027778,0.923076975 C2.9027778,0.646153875 2.72685183,0.46153845 2.55092594,0.369230775 L2.55092594,0.184615425 C2.72685183,0.092307675 2.9027778,1.77635684e-15 3.16666668,1.77635684e-15 C3.51851854,1.77635684e-15 3.69444443,0.184615425 3.69444443,0.646153875 C3.69444443,1.7538462 2.72685183,4.06153845 1.67129632,5.0769231 C1.49537036,5.26153845 1.31944446,5.3538462 1.14351849,5.44615387 L0.9675926,5.44615387 L0.439814844,0.5538462 Z" id="Shape"></path>
                            <path d="M3.95833331,3.50769232 C3.95833331,1.29230767 5.18981479,1.77635684e-15 6.59722223,1.77635684e-15 C6.94907409,1.77635684e-15 7.38888887,0.092307675 7.74074073,0.184615425 L7.38888887,2.12307698 C7.30092596,2.6769231 7.12499999,3.69230767 7.12499999,4.1538462 C7.12499999,4.89230767 7.30092596,4.98461542 7.65277774,5.0769231 L7.65277774,5.26153845 C7.38888887,5.3538462 7.03703701,5.44615387 6.77314813,5.44615387 C6.59722223,5.44615387 6.50925925,5.44615387 6.33333336,5.3538462 L6.59722223,3.69230767 C6.15740739,4.8 5.54166665,5.44615387 5.01388889,5.44615387 C4.39814816,5.3538462 3.95833331,4.70769232 3.95833331,3.50769232 Z M6.59722223,2.4 L6.86111111,0.5538462 C6.68518522,0.5538462 6.50925925,0.46153845 6.33333336,0.46153845 C5.45370367,0.46153845 4.75000002,1.38461542 4.75000002,3.23076922 C4.75000002,4.1538462 5.01388889,4.52307697 5.27777777,4.52307697 C5.71759262,4.61538465 6.33333336,3.8769231 6.59722223,2.4 Z" id="Shape"></path>
                            <path d="M9.06018519,0.5538462 L8.44444445,0.369230775 L8.44444445,0.184615425 C8.79629631,0.092307675 9.06018519,1.77635684e-15 9.50000003,1.77635684e-15 C9.67592593,1.77635684e-15 9.76388891,1.77635684e-15 9.93981481,0.092307675 L9.58796294,1.7538462 C10.0277778,0.646153875 10.7314815,1.77635684e-15 11.4351852,1.77635684e-15 C11.875,1.77635684e-15 12.2268519,0.369230775 12.2268519,1.01538465 C12.2268519,1.38461542 12.1388889,1.93846155 12.0509259,2.4 L11.875,3.6 C11.875,3.8769231 11.787037,4.24615387 11.787037,4.52307697 C11.787037,4.89230767 11.962963,4.98461542 12.3148148,5.0769231 L12.3148148,5.26153845 C12.0509259,5.3538462 11.787037,5.44615387 11.5231481,5.44615387 C11.2592593,5.44615387 10.9953704,5.26153845 10.9953704,4.98461542 C10.9953704,4.70769232 11.0833333,4.1538462 11.0833333,3.78461542 L11.2592593,2.49230767 C11.3472223,2.12307698 11.3472223,1.66153845 11.3472223,1.38461542 C11.3472223,0.923076975 11.1712963,0.73846155 10.9074074,0.73846155 C10.2916667,0.73846155 9.50000003,1.93846155 9.41203705,3.41538465 L9.32407407,5.26153845 L8.44444445,5.26153845 L9.06018519,0.5538462 Z" id="Shape"></path>
                        </g>
                        <g id="Justitie" transform="translate(53.000000, 0.153846)">
                            <path d="M1.07466059,6.2769231 L1.70154596,1.10769233 L1.07466059,0.923076975 L1.07466059,0.73846155 C1.43288081,0.646153875 1.70154596,0.5538462 2.05976618,0.5538462 C2.3284314,0.5538462 2.68665154,0.5538462 2.86576169,0.646153875 L2.86576169,0.8307693 C2.68665154,0.923076975 2.50754147,1.10769233 2.50754147,1.29230775 L1.97021118,6.09230775 C1.70154596,8.21538465 1.16421566,8.86153853 0.447775221,8.86153853 C0.268665147,8.86153853 0.0895550735,8.86153853 0,8.76923078 L0,8.6769231 C0.537330294,8.30769233 0.895550515,7.56923078 1.07466059,6.2769231 Z" id="Shape"></path>
                            <path d="M3.40309199,5.81538465 L3.67175713,4.52307698 C3.76131221,4.1538462 3.85086728,3.50769233 3.85086728,3.2307693 C3.85086728,2.86153853 3.67175713,2.6769231 3.40309199,2.58461543 L3.40309199,2.4 C3.67175713,2.30769233 3.94042228,2.21538465 4.2090875,2.21538465 C4.56730765,2.21538465 4.74641779,2.4 4.74641779,2.6769231 C4.74641779,3.04615388 4.65686272,3.78461543 4.56730765,4.33846155 L4.2986425,5.53846155 C4.2090875,5.81538465 4.2090875,6.09230775 4.2090875,6.36923078 C4.2090875,6.64615388 4.38819757,6.8307693 4.56730765,6.8307693 C5.10463801,6.8307693 5.91063346,5.90769233 6.0897436,4.24615388 L6.1792986,2.4 C6.44796382,2.30769233 6.80618397,2.21538465 7.16440419,2.21538465 L6.89573904,3.8769231 C6.71662897,4.61538465 6.6270739,5.6307693 6.6270739,6.2769231 C6.6270739,7.01538465 6.71662897,7.10769233 7.07484919,7.2 L7.07484919,7.38461543 C6.80618397,7.4769231 6.44796382,7.56923078 6.0897436,7.56923078 C5.91063346,7.56923078 5.82107846,7.56923078 5.64196831,7.4769231 L5.91063346,6 C5.46285824,6.73846155 4.74641779,7.56923078 4.11953243,7.56923078 C3.67175713,7.56923078 3.31353691,7.2 3.31353691,6.5538462 C3.31353691,6.36923078 3.40309199,6.09230775 3.40309199,5.81538465 Z" id="Shape"></path>
                            <path d="M7.52262441,6.64615388 C7.79128956,6.92307697 8.14950978,7.10769232 8.59728507,7.10769232 C9.13461537,7.10769232 9.49283559,6.8307693 9.49283559,6.36923078 C9.49283559,6 9.31372551,5.81538465 8.86595022,5.26153853 L8.50773,4.89230775 C8.05995471,4.4307693 7.88084463,4.1538462 7.88084463,3.69230775 C7.88084463,2.9538462 8.50773,2.21538465 9.49283559,2.21538465 C10.298831,2.21538465 10.6570512,2.49230775 10.6570512,2.76923078 C10.6570512,2.9538462 10.5674962,3.2307693 10.4779412,3.32307698 C10.209276,2.9538462 9.76150074,2.76923078 9.31372551,2.76923078 C8.86595022,2.76923078 8.59728507,3.04615388 8.59728507,3.41538465 C8.59728507,3.69230775 8.68684007,3.8769231 9.22417044,4.4307693 L9.58239066,4.8 C10.119721,5.26153853 10.298831,5.53846155 10.298831,6.09230775 C10.298831,6.92307697 9.49283559,7.66153852 8.32861993,7.66153852 C7.70173456,7.66153852 7.34351434,7.4769231 7.34351434,7.01538465 C7.43306934,6.8307693 7.43306934,6.73846155 7.52262441,6.64615388 Z" id="Shape"></path>
                            <path d="M11.6421568,3.69230775 L11.821267,2.9538462 C11.5526018,2.9538462 11.4630468,2.9538462 11.1943816,2.9538462 L11.1943816,2.76923078 C11.5526018,2.30769233 12.0899321,1.84615388 12.6272624,1.4769231 L12.8063726,1.4769231 L12.6272624,2.4 L12.8959276,2.4 C13.1645927,2.4 13.4332579,2.4 13.7019231,2.30769233 C13.7019231,2.76923078 13.4332579,2.9538462 12.8063726,2.9538462 L12.5377074,2.9538462 L12.3585973,4.06153853 C12.2690422,4.61538465 12.1794871,5.44615388 12.1794871,5.90769233 C12.1794871,6.64615388 12.5377074,6.92307698 12.9854826,6.92307698 C13.1645927,6.92307698 13.2541478,6.92307698 13.4332579,6.8307693 L13.4332579,7.01538465 C13.3437029,7.29230775 12.9854826,7.56923078 12.4481524,7.56923078 C11.7317119,7.56923078 11.3734917,7.10769233 11.3734917,6.18461543 C11.2839366,5.6307693 11.4630468,4.52307698 11.6421568,3.69230775 Z" id="Shape"></path>
                            <path d="M14.1496983,5.72307698 L14.5079185,3.50769233 L14.5974736,2.86153853 L13.9705882,2.6769231 L13.9705882,2.49230775 C14.3288085,2.4 14.6870287,2.30769233 15.0452488,2.30769233 C15.224359,2.30769233 15.403469,2.30769233 15.4930241,2.4 L15.0452488,5.6307693 C15.0452488,6 14.9556938,6.5538462 14.9556938,6.8307693 C14.9556938,7.2 15.0452488,7.38461543 15.403469,7.4769231 L15.403469,7.66153853 C15.224359,7.7538462 14.9556938,7.84615388 14.5974736,7.84615388 C14.2392534,7.84615388 14.0601433,7.66153853 14.0601433,7.38461543 C13.9705882,6.8307693 14.0601433,6.09230775 14.1496983,5.72307698 Z M14.5974736,0.646153875 C14.5974736,0.2769231 14.8661387,1.77635684e-15 15.224359,1.77635684e-15 C15.4930241,1.77635684e-15 15.6721342,0.184615425 15.6721342,0.5538462 C15.6721342,0.923076975 15.403469,1.2 15.0452488,1.2 C14.8661387,1.2 14.5974736,1.01538465 14.5974736,0.646153875 Z" id="Shape"></path>
                            <path d="M16.7467949,3.69230775 L16.925905,2.9538462 C16.6572398,2.9538462 16.5676848,2.9538462 16.2990196,2.9538462 L16.2990196,2.76923078 C16.6572398,2.30769233 17.1945701,1.84615388 17.7319004,1.4769231 L17.9110105,1.4769231 L17.7319004,2.4 L18.0005656,2.4 C18.2692307,2.4 18.5378959,2.4 18.8065611,2.30769233 C18.8065611,2.76923078 18.5378959,2.9538462 17.9110105,2.9538462 L17.6423454,2.9538462 L17.4632353,4.06153853 C17.3736802,4.61538465 17.2841251,5.44615388 17.2841251,5.90769233 C17.2841251,6.64615388 17.6423454,6.92307698 18.0901207,6.92307698 C18.2692307,6.92307698 18.3587858,6.92307698 18.5378959,6.8307693 L18.5378959,7.01538465 C18.4483409,7.29230775 18.0901207,7.56923078 17.5527904,7.56923078 C16.8363499,7.56923078 16.4781297,7.10769233 16.4781297,6.18461543 C16.3885746,5.6307693 16.5676848,4.52307698 16.7467949,3.69230775 Z" id="Shape"></path>
                            <path d="M19.2543363,5.72307698 L19.6125565,3.50769233 L19.7021116,2.86153853 L19.0752262,2.6769231 L19.0752262,2.49230775 C19.4334465,2.4 19.7916667,2.30769233 20.1498868,2.30769233 C20.328997,2.30769233 20.5081071,2.30769233 20.5976621,2.4 L20.1498868,5.6307693 C20.1498868,6 20.0603318,6.5538462 20.0603318,6.8307693 C20.0603318,7.2 20.1498868,7.38461543 20.5081071,7.4769231 L20.5081071,7.66153853 C20.328997,7.7538462 20.0603318,7.84615388 19.7021116,7.84615388 C19.3438914,7.84615388 19.1647812,7.66153853 19.1647812,7.38461543 C19.0752262,6.8307693 19.1647812,6.09230775 19.2543363,5.72307698 Z M19.7021116,0.646153875 C19.7021116,0.2769231 19.9707768,1.77635684e-15 20.328997,1.77635684e-15 C20.5976621,1.77635684e-15 20.7767722,0.184615425 20.7767722,0.5538462 C20.7767722,0.923076975 20.5081071,1.2 20.1498868,1.2 C19.9707768,1.2 19.7021116,1.01538465 19.7021116,0.646153875 Z" id="Shape"></path>
                            <path d="M23.463424,2.21538465 C24.1798644,2.21538465 24.6276394,2.58461543 24.6276394,3.32307698 C24.6276394,4.61538465 23.3738688,5.3538462 22.1200982,5.3538462 C22.1200982,6.64615387 22.4783181,7.01538465 23.1052034,7.01538465 C23.463424,7.01538465 24.0007541,6.8307693 24.2694196,6.46153852 C24.2694196,6.46153852 24.3589747,6.64615387 24.3589747,6.73846155 C24.3589747,7.29230775 23.6425343,7.66153852 22.8365387,7.66153852 C21.9409879,7.66153852 21.3141026,7.10769232 21.3141026,5.72307697 C21.2245475,3.32307698 22.4783181,2.21538465 23.463424,2.21538465 Z M23.7320887,3.50769232 C23.7320887,2.9538462 23.5529791,2.76923078 23.1947585,2.76923078 C22.7469835,2.76923078 22.0305431,3.6 22.0305431,4.89230775 C23.1052034,4.89230775 23.7320887,4.33846155 23.7320887,3.50769232 Z" id="Shape"></path>
                        </g>
                        <g id="en" transform="translate(0.000000, 12.153846)">
                            <path d="M2.13036399,0 C2.83898872,0 3.2818789,0.369230775 3.2818789,1.10769233 C3.2818789,2.4 2.04178581,3.13846155 0.801692721,3.13846155 C0.801692721,4.43076923 1.15600472,4.8 1.77605127,4.8 C2.13036399,4.8 2.66183236,4.61538465 2.9275669,4.24615388 C2.9275669,4.24615388 3.01614508,4.43076923 3.01614508,4.5230769 C3.01614508,5.0769231 2.30752036,5.44615388 1.51031745,5.44615388 C0.624536358,5.44615388 0.00448981209,4.89230768 0.00448981209,3.50769233 C-0.0840883697,1.10769233 1.15600472,0 2.13036399,0 Z M2.39609854,1.29230767 C2.39609854,0.73846155 2.21894218,0.553846125 1.86462945,0.553846125 C1.42173927,0.553846125 0.713114539,1.38461535 0.713114539,2.6769231 C1.77605127,2.6769231 2.39609854,2.1230769 2.39609854,1.29230767 Z" id="Shape"></path>
                            <path d="M4.34481636,0.646153875 L3.72476981,0.46153845 L3.72476981,0.2769231 C4.07908181,0.18461535 4.34481636,0.092307675 4.78770654,0.092307675 C4.9648629,0.092307675 5.05344108,0.092307675 5.23059672,0.18461535 L4.87628472,1.84615388 C5.3191749,0.73846155 6.02779963,0.092307675 6.73642436,0.092307675 C7.17931527,0.092307675 7.53362727,0.46153845 7.53362727,1.10769233 C7.53362727,1.4769231 7.44504908,2.03076923 7.3564709,2.49230768 L7.17931527,3.69230768 C7.17931527,3.96923078 7.09073708,4.33846155 7.09073708,4.61538465 C7.09073708,4.98461535 7.26789345,5.0769231 7.62220545,5.16923078 L7.62220545,5.35384613 C7.3564709,5.44615388 7.09073708,5.53846155 6.82500254,5.53846155 C6.55926872,5.53846155 6.29353418,5.35384613 6.29353418,5.0769231 C6.29353418,4.8 6.38211236,4.24615388 6.38211236,3.8769231 L6.55926872,2.58461535 C6.64784618,2.21538465 6.64784618,1.75384613 6.64784618,1.4769231 C6.64784618,1.01538465 6.47069054,0.830769225 6.20495599,0.830769225 C5.58490945,0.830769225 4.78770654,2.03076923 4.69912836,3.50769233 L4.61055018,5.35384613 L3.72476981,5.35384613 L4.34481636,0.646153875 Z" id="Shape"></path>
                        </g>
                        <g id="Veiligheid" transform="translate(10.000000, 10.153846)">
                            <path d="M0.54807675,1.35384612 L7.10542736e-15,1.17333333 L7.10542736e-15,0.992820473 C0.36538425,0.90256408 0.54807675,0.812307687 0.913461,0.812307687 C1.18749975,0.812307687 1.4615385,0.812307687 1.7355765,0.90256408 L1.7355765,1.08307694 C1.552884,1.17333333 1.4615385,1.26358973 1.4615385,1.35384612 L2.1009615,6.49846149 L4.0192305,1.26358973 L3.47115375,1.08307694 L3.47115375,0.90256408 C3.836538,0.812307687 4.11057675,0.722051293 4.475961,0.722051293 C4.6586535,0.722051293 4.93269225,0.722051293 5.115384,0.812307687 L5.115384,0.992820473 C4.93269225,1.08307694 4.841346,1.17333333 4.74999975,1.26358973 L2.28365325,7.58153843 L1.552884,7.58153843 L0.54807675,1.35384612 Z" id="Shape"></path>
                            <path d="M6.85096125,2.43692306 C7.5817305,2.43692306 8.038461,2.79794871 8.038461,3.52 C8.038461,4.78358973 6.759615,5.50564102 5.480769,5.50564102 C5.480769,6.76923075 5.84615325,7.13025639 6.48557625,7.13025639 C6.85096125,7.13025639 7.399038,6.94974361 7.67307675,6.58871796 C7.67307675,6.58871796 7.764423,6.76923075 7.764423,6.85948714 C7.764423,7.40102565 7.03365375,7.76205129 6.21153825,7.76205129 C5.2980765,7.76205129 4.6586535,7.22051279 4.6586535,5.86666667 C4.6586535,3.52 5.84615325,2.43692306 6.85096125,2.43692306 Z M7.2163455,3.70051279 C7.2163455,3.15897435 7.03365375,2.97846149 6.66826875,2.97846149 C6.21153825,2.97846149 5.480769,3.79076918 5.480769,5.05435898 C6.48557625,5.05435898 7.2163455,4.51282047 7.2163455,3.70051279 Z" id="Shape"></path>
                            <path d="M8.76923025,5.86666667 L9.13461525,3.70051279 L9.2259615,3.06871796 L8.5865385,2.8882051 L8.5865385,2.70769231 C8.95192275,2.61743585 9.317307,2.52717945 9.682692,2.52717945 C9.8653845,2.52717945 10.0480763,2.52717945 10.1394225,2.61743585 L9.682692,5.77641027 C9.682692,6.13743585 9.59134575,6.67897435 9.59134575,6.94974361 C9.59134575,7.31076918 9.682692,7.49128204 10.0480763,7.58153843 L10.0480763,7.76205129 C9.8653845,7.85230769 9.59134575,7.94256408 9.2259615,7.94256408 C8.8605765,7.94256408 8.677884,7.76205129 8.677884,7.49128204 C8.677884,6.94974361 8.76923025,6.22769231 8.76923025,5.86666667 Z M9.317307,0.90256408 C9.317307,0.541538433 9.59134575,0.27076918 9.95673075,0.27076918 C10.2307688,0.27076918 10.4134613,0.45128204 10.4134613,0.812307687 C10.4134613,1.17333333 10.1394225,1.44410251 9.77403825,1.44410251 C9.4999995,1.44410251 9.317307,1.26358973 9.317307,0.90256408 Z" id="Shape"></path>
                            <path d="M11.1442305,5.86666667 L11.8749998,0.541538433 L11.2355768,0.361025647 L11.2355768,0.180512787 C11.600961,0.0902563933 11.8749998,3.55271368e-15 12.3317303,3.55271368e-15 C12.5144228,3.55271368e-15 12.6971153,3.55271368e-15 12.7884615,0.0902563933 L11.966346,5.68615381 C11.8749998,6.04717945 11.8749998,6.49846149 11.8749998,6.85948714 C11.8749998,7.22051279 12.0576923,7.40102565 12.3317303,7.49128204 L12.3317303,7.67179483 C12.1490385,7.76205129 11.7836535,7.85230769 11.5096148,7.85230769 C11.1442305,7.85230769 10.961538,7.67179483 10.961538,7.31076918 C11.0528843,6.94974361 11.1442305,6.22769231 11.1442305,5.86666667 Z" id="Shape"></path>
                            <path d="M13.5192308,5.86666667 L13.884615,3.70051279 L13.9759613,3.06871796 L13.3365383,2.8882051 L13.3365383,2.70769231 C13.7019225,2.61743585 14.0673075,2.52717945 14.4326918,2.52717945 C14.6153843,2.52717945 14.7980768,2.52717945 14.889423,2.61743585 L14.4326918,5.77641027 C14.4326918,6.13743585 14.3413455,6.67897435 14.3413455,6.94974361 C14.3413455,7.31076918 14.4326918,7.49128204 14.7980768,7.58153843 L14.7980768,7.76205129 C14.6153843,7.85230769 14.3413455,7.94256408 13.9759613,7.94256408 C13.6105763,7.94256408 13.4278845,7.76205129 13.4278845,7.49128204 C13.4278845,6.94974361 13.5192308,6.22769231 13.5192308,5.86666667 Z M14.0673075,0.90256408 C14.0673075,0.541538433 14.3413455,0.27076918 14.7067305,0.27076918 C14.9807693,0.27076918 15.163461,0.45128204 15.163461,0.812307687 C15.163461,1.17333333 14.889423,1.44410251 14.524038,1.44410251 C14.25,1.44410251 14.0673075,1.26358973 14.0673075,0.90256408 Z" id="Shape"></path>
                            <path d="M15.6201923,9.11589741 C15.6201923,9.56717945 15.9855765,9.83794871 16.5336533,9.83794871 C17.3557688,9.83794871 17.9038455,9.29641027 18.086538,8.03282047 L18.2692305,6.13743585 C17.9038455,7.13025639 17.1730763,7.85230769 16.6249995,7.85230769 C16.168269,7.85230769 15.6201923,7.22051279 15.6201923,5.95692306 C15.6201923,3.88102565 16.807692,2.52717945 18.2692305,2.52717945 C18.725961,2.52717945 19.1826923,2.61743585 19.5480765,2.70769231 L19.091346,4.78358973 C18.9999998,5.32512816 18.9086535,6.4082051 18.9086535,6.94974361 C18.9086535,9.38666667 17.7211538,10.3794871 16.2596153,10.3794871 C15.2548073,10.3794871 14.7067305,9.9282051 14.7067305,9.38666667 C14.7067305,8.84512816 15.2548073,8.48410251 15.802884,8.48410251 C15.6201923,8.57435898 15.6201923,8.84512816 15.6201923,9.11589741 Z M18.3605768,4.78358973 L18.6346148,3.06871796 C18.451923,3.06871796 18.2692305,2.97846149 18.086538,2.97846149 C17.2644225,2.97846149 16.5336533,3.88102565 16.5336533,5.68615381 C16.5336533,6.58871796 16.807692,6.94974361 17.0817308,6.94974361 C17.447115,7.04 18.086538,6.31794871 18.3605768,4.78358973 Z" id="Shape"></path>
                            <path d="M20.7355763,4.15179483 L21.1009613,0.541538433 L20.4615383,0.361025647 L20.4615383,0.180512787 C20.8269225,0.0902563933 21.1923075,-1.77635684e-15 21.5576918,-1.77635684e-15 C21.7403843,-1.77635684e-15 21.9230768,-1.77635684e-15 22.014423,0.0902563933 L21.4663455,3.97128204 C21.9230768,3.06871796 22.5624998,2.43692306 23.293269,2.43692306 C23.8413458,2.43692306 24.1153845,2.79794871 24.1153845,3.42974361 C24.1153845,3.79076918 24.0240383,4.33230769 23.932692,4.78358973 L23.7499995,5.86666667 C23.7499995,6.13743585 23.6586533,6.58871796 23.6586533,6.76923075 C23.6586533,7.13025639 23.8413458,7.22051279 24.2067308,7.31076918 L24.2067308,7.49128204 C23.932692,7.58153843 23.6586533,7.67179483 23.3846153,7.67179483 C23.1105765,7.67179483 22.8365385,7.49128204 22.8365385,7.22051279 C22.8365385,6.94974361 22.927884,6.4082051 23.0192303,6.04717945 L23.2019228,4.87384612 C23.293269,4.51282047 23.293269,4.06153843 23.293269,3.79076918 C23.293269,3.33948714 23.1105765,3.15897435 22.8365385,3.15897435 C22.288461,3.15897435 21.4663455,4.06153843 21.375,5.59589741 L21.2836538,7.67179483 L20.370192,7.67179483 L20.7355763,4.15179483 Z" id="Shape"></path>
                            <path d="M27.2211533,2.43692306 C27.9519225,2.43692306 28.4086538,2.79794871 28.4086538,3.52 C28.4086538,4.78358973 27.129807,5.50564102 25.850961,5.50564102 C25.850961,6.76923075 26.216346,7.13025639 26.855769,7.13025639 C27.2211533,7.13025639 27.7692308,6.94974361 28.0432688,6.58871796 C28.0432688,6.58871796 28.134615,6.76923075 28.134615,6.85948714 C28.134615,7.40102565 27.4038458,7.76205129 26.5817303,7.76205129 C25.6682693,7.76205129 25.0288455,7.22051279 25.0288455,5.86666667 C25.0288455,3.52 26.216346,2.43692306 27.2211533,2.43692306 Z M27.5865383,3.70051279 C27.5865383,3.15897435 27.4038458,2.97846149 27.0384615,2.97846149 C26.5817303,2.97846149 25.850961,3.79076918 25.850961,5.05435898 C26.855769,5.05435898 27.5865383,4.51282047 27.5865383,3.70051279 Z" id="Shape"></path>
                            <path d="M29.139423,5.86666667 L29.5048073,3.70051279 L29.5961535,3.06871796 L28.9567305,2.8882051 L28.9567305,2.70769231 C29.3221148,2.61743585 29.6874998,2.52717945 30.052884,2.52717945 C30.2355765,2.52717945 30.418269,2.52717945 30.5096153,2.61743585 L30.052884,5.77641027 C30.052884,6.13743585 29.9615385,6.67897435 29.9615385,6.94974361 C29.9615385,7.31076918 30.052884,7.49128204 30.418269,7.58153843 L30.418269,7.76205129 C30.2355765,7.85230769 29.9615385,7.94256408 29.5961535,7.94256408 C29.2307693,7.94256408 29.0480768,7.76205129 29.0480768,7.49128204 C29.0480768,6.94974361 29.139423,6.22769231 29.139423,5.86666667 Z M29.6874998,0.90256408 C29.6874998,0.541538433 29.9615385,0.27076918 30.3269228,0.27076918 C30.6009615,0.27076918 30.7836533,0.45128204 30.7836533,0.812307687 C30.7836533,1.17333333 30.5096153,1.44410251 30.1442303,1.44410251 C29.8701923,1.44410251 29.6874998,1.26358973 29.6874998,0.90256408 Z" id="Shape"></path>
                            <path d="M31.2403845,5.95692306 C31.2403845,3.79076918 32.5192305,2.52717945 33.8894228,2.52717945 C33.980769,2.52717945 34.1634615,2.52717945 34.254807,2.52717945 L34.5288458,0.631794827 L33.7980765,0.45128204 L33.7980765,0.27076918 C34.1634615,0.180512787 34.4374995,0.0902563933 34.9855763,0.0902563933 C35.1682688,0.0902563933 35.3509613,0.0902563933 35.4423075,0.180512787 L34.620192,4.60307694 C34.5288458,5.05435898 34.3461533,6.22769231 34.3461533,6.67897435 C34.3461533,7.40102565 34.5288458,7.49128204 34.8942308,7.58153843 L34.8942308,7.76205129 C34.5288458,7.85230769 34.254807,7.94256408 33.980769,7.94256408 C33.7980765,7.94256408 33.615384,7.94256408 33.5240385,7.85230769 L33.7980765,6.22769231 C33.4326923,7.22051279 32.701923,7.94256408 32.0625,7.94256408 C31.697115,7.76205129 31.2403845,7.13025639 31.2403845,5.95692306 Z M33.8894228,4.87384612 L34.1634615,3.06871796 C33.980769,3.06871796 33.7980765,2.97846149 33.615384,2.97846149 C32.701923,2.97846149 31.9711538,3.79076918 31.9711538,5.68615381 C31.9711538,6.58871796 32.2451918,6.94974361 32.5192305,6.94974361 C33.0673073,7.04 33.7067303,6.4082051 33.8894228,4.87384612 Z" id="Shape"></path>
                        </g>
                    </g>
                </g>
            </g>
        </g>
    </g>
</svg>